<?xml version="1.0" standalone="no"?>
<!DOCTYPE svg PUBLIC "-//W3C//DTD SVG 20010904//EN"
 "http://www.w3.org/TR/2001/REC-SVG-20010904/DTD/svg10.dtd">
<svg version="1.0" xmlns="http://www.w3.org/2000/svg"
 width="700.000000pt" height="700.000000pt" viewBox="0 0 700.000000 700.000000"
 preserveAspectRatio="xMidYMid meet">
<metadata>
Created by potrace 1.14, written by Peter Selinger 2001-2017
</metadata>
<g transform="translate(0.000000,700.000000) scale(0.100000,-0.100000)"
fill="#000000" stroke="none">
<path d="M840 6985 c-368 -67 -672 -329 -789 -682 -53 -160 -51 -30 -51 -2803
0 -2254 2 -2578 15 -2655 75 -428 402 -755 831 -830 76 -13 410 -15 2654 -15
2773 0 2643 -2 2803 51 302 100 546 344 646 646 53 160 51 30 51 2803 0 2773
2 2643 -51 2803 -100 302 -344 546 -646 646 -160 53 -29 51 -2812 50 -2120 -1
-2589 -3 -2651 -14z m3162 -1222 l388 -388 390 390 390 390 221 -220 c379
-377 496 -519 605 -738 187 -372 241 -798 153 -1202 -152 -690 -702 -1233
-1397 -1376 -123 -25 -140 -25 -146 4 -3 12 -7 76 -10 142 -6 140 -41 317 -91
472 -34 104 -135 322 -190 412 l-27 43 58 -6 c115 -13 286 27 402 96 32 18 93
69 137 113 136 135 198 289 198 485 0 129 -17 203 -80 330 -45 94 -50 99 -329
380 l-284 285 -278 -280 c-192 -192 -290 -299 -315 -341 -108 -180 -134 -388
-72 -581 32 -103 85 -191 166 -278 219 -235 350 -446 437 -710 71 -210 87
-317 87 -570 0 -191 -3 -235 -23 -334 -62 -304 -188 -575 -377 -806 -41 -49
-196 -211 -344 -360 l-271 -270 -390 390 -390 390 -390 -390 -391 -390 -277
280 c-153 154 -305 314 -339 355 -482 597 -535 1433 -131 2084 95 153 250 329
398 452 199 165 506 309 777 363 154 32 139 43 146 -113 7 -161 42 -344 98
-511 38 -116 129 -315 184 -402 l26 -43 -99 0 c-273 0 -510 -146 -623 -385
-53 -112 -69 -181 -69 -306 0 -169 38 -288 135 -424 24 -33 159 -175 299 -315
l257 -255 288 290 c285 286 289 291 335 385 53 109 76 201 76 315 0 189 -64
342 -211 500 -303 329 -461 666 -510 1085 -14 127 -7 356 17 490 33 192 113
414 210 586 94 163 198 288 493 586 156 159 286 288 290 288 3 0 180 -174 393
-387z"/>
</g>
</svg>
