<svg width="100" height="26" viewBox="0 0 100 26" fill="none" xmlns="http://www.w3.org/2000/svg">
<path d="M15.4442 12.2384C15.455 11.4064 15.6761 10.5906 16.0868 9.86695C16.4976 9.14331 17.0847 8.53531 17.7936 8.09951C17.3432 7.45615 16.7491 6.92669 16.0583 6.55317C15.3675 6.17965 14.5991 5.97238 13.8142 5.94781C12.1402 5.77335 10.5177 6.95055 9.66449 6.95055C8.79468 6.95055 7.48123 5.96609 6.06726 5.99517C5.15239 6.02467 4.26076 6.29064 3.47923 6.76715C2.69769 7.24367 2.05291 7.9145 1.60769 8.71428C-0.319691 12.0523 1.11754 16.9588 2.96517 19.6572C3.88899 20.9781 4.96899 22.4544 6.38213 22.4012C7.76453 22.3439 8.28126 21.5206 9.95028 21.5206C11.6035 21.5206 12.0887 22.4012 13.5309 22.368C15.0138 22.3439 15.9484 21.0412 16.8407 19.707C17.5045 18.7658 18.0153 17.7256 18.3543 16.6249C17.4921 16.2602 16.7564 15.6498 16.2389 14.8698C15.7213 14.0897 15.4449 13.1745 15.4442 12.2384ZM12.7209 4.17412C13.5298 3.2028 13.9283 1.9544 13.8316 0.694029C12.5956 0.823974 11.4539 1.41485 10.634 2.34892C10.2332 2.80513 9.92625 3.33584 9.73068 3.91074C9.5351 4.48564 9.45474 5.09344 9.49419 5.69941C10.1124 5.70574 10.7239 5.57176 11.2828 5.30756C11.8417 5.04336 12.3334 4.65583 12.7209 4.17412ZM32.9235 19.0565H28.2048L27.0716 22.4029H25.0728L29.5423 10.0227H31.6192L36.0888 22.4029H34.0559L32.9235 19.0565ZM28.6933 17.513H32.4334L30.5891 12.0822H30.5384L28.6933 17.513ZM45.7406 17.8901C45.7406 20.6956 44.2403 22.4976 41.9748 22.4976C41.4008 22.5278 40.8299 22.3957 40.3275 22.1163C39.8251 21.837 39.4116 21.4218 39.1344 20.9183H39.092V25.3886H37.2394V13.3774H39.0322V14.8786H39.0662C39.3563 14.3775 39.7768 13.9645 40.283 13.6835C40.7892 13.4025 41.3621 13.264 41.9407 13.2827C44.2311 13.2827 45.7415 15.0938 45.7415 17.8901H45.7406ZM43.8374 17.8901C43.8374 16.0624 42.8928 14.862 41.4522 14.862C40.0366 14.862 39.0845 16.0882 39.0845 17.8901C39.0845 19.7095 40.0366 20.9266 41.4522 20.9266C42.8928 20.9266 43.8365 19.7344 43.8365 17.8901H43.8374ZM55.6758 17.8901C55.6758 20.6956 54.1738 22.4976 51.9091 22.4976C51.3351 22.5276 50.7643 22.3954 50.262 22.1161C49.7596 21.8368 49.3461 21.4217 49.0687 20.9183H49.0263V25.3886H47.1737V13.3774H48.9665V14.8786H49.0006C49.2907 14.3775 49.7112 13.9645 50.2173 13.6835C50.7235 13.4025 51.2964 13.264 51.875 13.2827C54.1655 13.2827 55.675 15.0938 55.675 17.8901H55.6758ZM53.7709 17.8901C53.7709 16.0624 52.8271 14.862 51.3866 14.862C49.9701 14.862 49.0189 16.0882 49.0189 17.8901C49.0189 19.7095 49.9701 20.9266 51.3866 20.9266C52.8271 20.9266 53.7709 19.7344 53.7709 17.8901ZM62.2414 18.9535C62.3785 20.1814 63.5706 20.9872 65.2006 20.9872C66.7624 20.9872 67.8856 20.1814 67.8856 19.074C67.8856 18.1136 67.2077 17.5379 65.6035 17.1441L63.9993 16.757C61.7263 16.2086 60.6704 15.1453 60.6704 13.4198C60.6704 11.2838 62.5322 9.81671 65.1757 9.81671C67.7909 9.81671 69.5846 11.2838 69.6452 13.4198H67.7743C67.663 12.1844 66.6411 11.4384 65.1491 11.4384C63.6562 11.4384 62.6352 12.1935 62.6352 13.291C62.6352 14.1666 63.2873 14.6817 64.8832 15.0755L66.2474 15.4111C68.787 16.0118 69.8429 17.0311 69.8429 18.8422C69.8429 21.1584 67.9978 22.6089 65.0635 22.6089C62.3178 22.6089 60.4644 21.1924 60.3447 18.9535H62.2414ZM73.8406 11.2415V13.3766H75.557V14.8445H73.8406V19.82C73.8406 20.5926 74.1845 20.9532 74.9389 20.9532C75.1427 20.9498 75.3463 20.9356 75.5487 20.9108V22.3688C75.2097 22.4319 74.8649 22.4602 74.5193 22.4544C72.6925 22.4544 71.9797 21.7682 71.9797 20.0177V14.8445H70.667V13.3774H71.9797V11.2406H73.8406V11.2415ZM76.5514 17.8901C76.5514 15.0506 78.2237 13.2661 80.8323 13.2661C83.4493 13.2661 85.1141 15.0506 85.1141 17.8901C85.1141 20.738 83.4576 22.515 80.8323 22.515C78.2071 22.515 76.5514 20.738 76.5514 17.8901ZM83.2258 17.8901C83.2258 15.942 82.3335 14.7922 80.8323 14.7922C79.3311 14.7922 78.4389 15.9511 78.4389 17.891C78.4389 19.8466 79.3311 20.9872 80.8323 20.9872C82.3335 20.9872 83.2258 19.8466 83.2258 17.8901ZM86.6411 13.3774H88.4081V14.9135H88.4513C88.5707 14.4336 88.8517 14.0095 89.247 13.7125C89.6424 13.4154 90.128 13.2637 90.6221 13.2827C90.8356 13.2818 91.0483 13.3051 91.2568 13.3516V15.0846C90.9873 15.0022 90.7061 14.9643 90.4244 14.9725C90.1552 14.9615 89.8868 15.0089 89.6377 15.1115C89.3886 15.2141 89.1646 15.3693 88.9812 15.5667C88.7977 15.764 88.6592 15.9987 88.575 16.2546C88.4909 16.5106 88.4631 16.7817 88.4937 17.0494V22.4029H86.6411V13.3774ZM99.7988 19.7519C99.5496 21.3902 97.9537 22.515 95.9125 22.515C93.2864 22.515 91.6573 20.7554 91.6573 17.9333C91.6573 15.1021 93.2955 13.2661 95.8344 13.2661C98.3317 13.2661 99.9018 14.9816 99.9018 17.7182V18.3529H93.5273V18.465C93.4977 18.7972 93.5391 19.1319 93.649 19.4467C93.7589 19.7616 93.9346 20.0494 94.1645 20.291C94.3938 20.5332 94.6721 20.7237 94.9808 20.8498C95.2895 20.9758 95.6216 21.0346 95.9548 21.0221C96.393 21.0632 96.8326 20.9617 97.2084 20.7326C97.5841 20.5036 97.8758 20.1593 98.0401 19.751H99.7988V19.7519ZM93.5356 17.0577H98.0484C98.0652 16.7591 98.02 16.4603 97.9157 16.18C97.8113 15.8998 97.65 15.6442 97.4419 15.4294C97.2341 15.2141 96.9841 15.0441 96.7074 14.9302C96.4308 14.8162 96.1335 14.7607 95.8344 14.7673C95.5326 14.7653 95.2335 14.8231 94.9543 14.9374C94.675 15.0517 94.4212 15.2202 94.2075 15.4332C93.9937 15.6462 93.8243 15.8994 93.709 16.1782C93.5937 16.457 93.5347 16.756 93.5356 17.0577ZM28.4615 0.704829C28.8498 0.677189 29.2395 0.736034 29.6024 0.877124C29.9653 1.01821 30.2924 1.23804 30.5601 1.52076C30.8278 1.80347 31.0294 2.14205 31.1505 2.51209C31.2716 2.88213 31.3091 3.27442 31.2603 3.66071C31.2603 5.56068 30.2327 6.65314 28.4606 6.65314H26.3131V0.704829H28.4623H28.4615ZM27.2361 5.81157H28.3576C28.6353 5.8284 28.9131 5.78307 29.171 5.67889C29.4289 5.5747 29.6603 5.41427 29.8483 5.20931C30.0363 5.00435 30.1762 4.76001 30.2578 4.49412C30.3394 4.22823 30.3606 3.94748 30.3199 3.67234C30.3575 3.39833 30.334 3.1194 30.251 2.85556C30.1681 2.59171 30.0279 2.34947 29.8403 2.1462C29.6528 1.94293 29.4226 1.78367 29.1662 1.67983C28.9099 1.57599 28.6338 1.53014 28.3576 1.54557H27.2361V5.81157ZM32.3038 4.40674C32.2751 4.11149 32.3085 3.81351 32.4018 3.53194C32.4951 3.25037 32.6463 2.99143 32.8457 2.77177C33.045 2.55211 33.2881 2.37658 33.5594 2.25646C33.8306 2.13634 34.124 2.07429 34.4206 2.07429C34.7172 2.07429 35.0106 2.13634 35.2818 2.25646C35.553 2.37658 35.7961 2.55211 35.9955 2.77177C36.1948 2.99143 36.346 3.25037 36.4394 3.53194C36.5327 3.81351 36.5661 4.11149 36.5374 4.40674C36.5661 4.70198 36.5327 4.99996 36.4394 5.28154C36.346 5.56311 36.1948 5.82204 35.9955 6.0417C35.7961 6.26137 35.553 6.43689 35.2818 6.55701C35.0106 6.67713 34.7172 6.73919 34.4206 6.73919C34.124 6.73919 33.8306 6.67713 33.5594 6.55701C33.2881 6.43689 33.045 6.26137 32.8457 6.0417C32.6463 5.82204 32.4951 5.56311 32.4018 5.28154C32.3085 4.99996 32.2751 4.70198 32.3038 4.40674ZM35.6269 4.40674C35.6269 3.43391 35.189 2.86483 34.4222 2.86483C33.6521 2.86483 33.2193 3.43391 33.2193 4.40674C33.2193 5.38704 33.6521 5.95197 34.4222 5.95197C35.189 5.95197 35.6269 5.38372 35.6269 4.40674ZM42.1658 6.65314H41.247L40.319 3.34668H40.2493L39.3254 6.65314H38.4149L37.1771 2.16366H38.0768L38.881 5.58975H38.9474L39.8696 2.16449H40.7203L41.6425 5.58975H41.7131L42.5131 2.16449H43.3995L42.1667 6.65314H42.1658ZM44.4388 2.16449H45.292V2.87729H45.3585C45.4707 2.62114 45.66 2.40638 45.9001 2.26297C46.1401 2.11956 46.419 2.05464 46.6977 2.07726C46.9161 2.0608 47.1355 2.09371 47.3395 2.17357C47.5435 2.25342 47.7269 2.37816 47.8761 2.53855C48.0253 2.69893 48.1365 2.89084 48.2014 3.10006C48.2664 3.30927 48.2834 3.53042 48.2512 3.74711V6.65314H47.3656V3.96975C47.3656 3.24864 47.0524 2.88975 46.397 2.88975C46.2487 2.88295 46.1008 2.90825 45.9632 2.96393C45.8256 3.01961 45.7017 3.10435 45.6 3.21235C45.4982 3.32035 45.421 3.44906 45.3736 3.58968C45.3261 3.7303 45.3097 3.8795 45.3253 4.02708V6.65314H44.4388V2.16449ZM49.6635 0.411568H50.5491V6.65314H49.6635V0.411568ZM51.7803 4.40674C51.7444 4.03696 51.806 3.66422 51.9591 3.32569C52.1121 2.98716 52.3512 2.69467 52.6526 2.47738C52.9539 2.26009 53.307 2.1256 53.6765 2.08731C54.046 2.04903 54.4192 2.1083 54.7587 2.2592C55.1672 2.43973 55.5085 2.74437 55.7341 3.12986C55.9598 3.51535 56.0583 3.96211 56.0156 4.40674C56.0512 4.7766 55.9894 5.14934 55.8363 5.48791C55.6832 5.82647 55.4441 6.11905 55.1429 6.33656C54.8416 6.55406 54.4887 6.68891 54.1191 6.72768C53.7496 6.76646 53.3763 6.70783 53.0365 6.5576C52.6276 6.37665 52.2861 6.07142 52.0606 5.68529C51.8351 5.29917 51.737 4.85179 51.7803 4.40674ZM55.1034 4.40674C55.1034 3.43391 54.6664 2.86483 53.8988 2.86483C53.1287 2.86483 52.6959 3.43391 52.6959 4.40674C52.6959 5.38704 53.1295 5.95197 53.8988 5.95197C54.6664 5.95197 55.1034 5.38372 55.1034 4.40674ZM56.9477 5.38372C56.9477 4.57538 57.5492 4.10932 58.6176 4.04369L59.8338 3.97308V3.58594C59.8338 3.1124 59.5198 2.84406 58.9142 2.84406C58.4198 2.84406 58.0767 3.026 57.9787 3.34252H57.1214C57.2119 2.57157 57.9372 2.07726 58.9549 2.07726C60.0806 2.07726 60.7161 2.63803 60.7161 3.58594V6.65314H59.8629V6.02175H59.7923C59.6502 6.24829 59.4505 6.43303 59.2136 6.5571C58.9767 6.68116 58.7111 6.74011 58.4439 6.72791C58.2555 6.74728 58.0651 6.72698 57.885 6.66832C57.7049 6.60966 57.5391 6.51394 57.3983 6.38732C57.2574 6.2607 57.1446 6.10598 57.0672 5.93313C56.9897 5.76028 56.9493 5.57313 56.9486 5.38372H56.9477ZM59.8338 4.99991V4.6244L58.7372 4.69501C58.1191 4.73655 57.8383 4.94674 57.8383 5.34301C57.8383 5.74594 58.1889 5.98105 58.6707 5.98105C58.812 5.99565 58.9547 5.98165 59.0904 5.93988C59.2261 5.89811 59.3519 5.82942 59.4605 5.73793C59.5691 5.64643 59.6581 5.53399 59.7222 5.40733C59.7863 5.28068 59.8243 5.14239 59.8338 5.00074V4.99991ZM61.88 4.40674C61.88 2.98861 62.6086 2.08972 63.7434 2.08972C64.024 2.07682 64.3024 2.14403 64.5461 2.28349C64.7899 2.42295 64.9889 2.62891 65.12 2.87729H65.1865V0.411568H66.0721V6.65314H65.223V5.94366H65.1532C65.012 6.19041 64.806 6.39383 64.5575 6.53192C64.309 6.67 64.0275 6.73749 63.7434 6.72707C62.6011 6.72707 61.88 5.82818 61.88 4.40674ZM62.7947 4.40674C62.7947 5.3588 63.2433 5.93203 63.9943 5.93203C64.7412 5.93203 65.2022 5.35049 65.2022 4.41006C65.2022 3.47461 64.737 2.8856 63.9943 2.8856C63.2483 2.8856 62.7947 3.46215 62.7947 4.40674ZM69.7374 4.40674C69.7097 4.11169 69.7437 3.81411 69.8372 3.53291C69.9307 3.25172 70.0818 2.99308 70.2807 2.77344C70.5306 2.49909 70.8478 2.29484 71.201 2.18097C71.5541 2.06711 71.9309 2.04758 72.294 2.12434C72.657 2.2011 72.9936 2.37146 73.2705 2.61853C73.5473 2.86559 73.7548 3.18077 73.8722 3.53277C73.966 3.8144 73.9993 4.11181 73.971 4.40674C73.9997 4.70198 73.9663 4.99996 73.873 5.28154C73.7797 5.56311 73.6285 5.82204 73.4291 6.0417C73.2298 6.26137 72.9867 6.43689 72.7154 6.55701C72.4442 6.67713 72.1508 6.73919 71.8542 6.73919C71.5576 6.73919 71.2642 6.67713 70.993 6.55701C70.7218 6.43689 70.4787 6.26137 70.2793 6.0417C70.08 5.82204 69.9288 5.56311 69.8354 5.28154C69.7421 4.99996 69.7087 4.70198 69.7374 4.40674ZM73.0605 4.40674C73.0605 3.43391 72.6227 2.86483 71.8559 2.86483C71.0858 2.86483 70.6529 3.43391 70.6529 4.40674C70.6529 5.38704 71.0858 5.95197 71.8559 5.95197C72.6227 5.95197 73.0605 5.38372 73.0605 4.40674ZM75.1599 2.16366H76.013V2.87729H76.0795C76.1916 2.62106 76.3809 2.40624 76.621 2.26281C76.8611 2.11938 77.14 2.05451 77.4187 2.07726C77.748 2.05289 78.0759 2.1407 78.3489 2.3264C78.6219 2.51209 78.8241 2.78473 78.9224 3.09994C78.9872 3.30929 79.0046 3.53028 78.9722 3.74711V6.65314H78.0867V3.96975C78.0867 3.24864 77.7735 2.88975 77.118 2.88975C76.8944 2.87875 76.6734 2.94115 76.4886 3.06744C76.3038 3.19373 76.1654 3.37698 76.0945 3.58926C76.0471 3.73049 76.0305 3.88003 76.0463 4.02708V6.65314H75.1599V2.16449V2.16366ZM83.9785 1.04628V2.18443H84.9513V2.93046H83.9785V5.23917C83.9785 5.70938 84.172 5.91541 84.6132 5.91541C84.7262 5.91541 84.8391 5.90794 84.9513 5.89465V6.63237C84.7922 6.66091 84.6311 6.67619 84.4695 6.67806C83.4842 6.67806 83.092 6.33163 83.092 5.46597V2.93046H82.3792V2.18443H83.092V1.04628H83.9785ZM86.1609 0.411568H87.0398V2.8856H87.1096C87.2274 2.62718 87.4219 2.41132 87.6668 2.26743C87.9116 2.12353 88.1948 2.05858 88.4779 2.08141C88.6954 2.06931 88.9128 2.10549 89.1146 2.18736C89.3164 2.26923 89.4976 2.39477 89.6451 2.55495C89.7927 2.7147 89.9032 2.90505 89.9687 3.11242C90.0341 3.31979 90.053 3.53907 90.024 3.75458V6.65397H89.1375V3.97391C89.1375 3.25612 88.8036 2.89391 88.1772 2.89391C87.9478 2.87553 87.7187 2.93295 87.5251 3.05737C87.3315 3.18179 87.1841 3.36631 87.1055 3.58261C87.054 3.72621 87.0341 3.87925 87.0473 4.03123V6.65314H86.1609V0.411568ZM95.1897 5.44105C95.0701 5.85171 94.8095 6.20705 94.4538 6.44455C94.0981 6.68205 93.67 6.78651 93.2449 6.73954C92.9491 6.74739 92.6552 6.69077 92.3835 6.57362C92.1118 6.45646 91.8689 6.28158 91.6716 6.06112C91.4743 5.84066 91.3274 5.57989 91.241 5.29693C91.1545 5.01397 91.1308 4.7156 91.1713 4.42252C91.113 3.97952 91.1991 3.52953 91.4168 3.13936C91.6346 2.7492 91.9724 2.43966 92.38 2.25671C92.6508 2.13608 92.9443 2.07489 93.2407 2.07726C94.4902 2.07726 95.2437 2.93046 95.2437 4.34028V4.64932H92.0735V4.69917C92.0602 4.86381 92.0812 5.02942 92.1351 5.18555C92.189 5.34169 92.2747 5.48497 92.3867 5.60637C92.4994 5.72735 92.636 5.82352 92.7879 5.88875C92.9398 5.95397 93.1036 5.98682 93.269 5.9852C93.4809 6.01052 93.6956 5.97232 93.8858 5.87544C94.076 5.77856 94.2332 5.62737 94.3373 5.44105H95.1897ZM92.0735 3.99468H94.3415C94.3521 3.84392 94.3313 3.69262 94.2804 3.55033C94.2295 3.40804 94.1496 3.27787 94.0457 3.16806C93.9418 3.05836 93.816 2.97172 93.6765 2.91375C93.5369 2.85579 93.3868 2.8278 93.2357 2.8316C93.0825 2.82981 92.9305 2.85869 92.7887 2.91651C92.6468 2.97434 92.5179 3.05996 92.4096 3.16833C92.3013 3.2767 92.2158 3.40564 92.1581 3.54755C92.1003 3.68946 92.0716 3.84148 92.0735 3.99468Z" fill="black"/>
</svg>
