<svg width="1080" height="1080" viewBox="0 0 1080 1080" fill="none" xmlns="http://www.w3.org/2000/svg">
<rect width="1080" height="1080" rx="540" fill="#3414FC"/>
<g clip-path="url(#clip0_11236_12601)">
<path d="M822.15 590.929C784.952 628.238 736.254 651.906 683.935 658.104C684.506 607.415 670.14 557.68 642.629 515.102C656.547 517.157 670.752 515.965 684.133 511.621C697.515 507.278 709.711 499.899 719.769 490.061C756.136 454.523 755.641 395.199 719.693 359.251L655.925 295.484L757.506 193.854L822.112 258.47C891 327.358 908.199 428.359 873.697 513.294C861.888 542.364 844.359 568.764 822.15 590.929V590.929Z" fill="white"/>
<path d="M425.085 784.745L323.503 886.374L258.898 821.759C190.009 752.871 172.811 651.87 207.312 566.935C223.157 528.07 249.107 494.149 282.472 468.687C315.838 443.225 355.405 427.149 397.074 422.125C396.503 472.814 410.869 522.549 438.381 565.127C424.463 563.072 410.258 564.264 396.876 568.607C383.495 572.951 371.299 580.33 361.241 590.167C324.874 625.706 325.369 685.029 361.317 720.977L425.085 784.745Z" fill="white"/>
<path d="M591.319 821.759L526.704 886.374L425.085 784.746L489.69 720.14C506.824 703.005 516.45 679.766 516.45 655.535C516.45 631.303 506.824 608.064 489.69 590.929C445.604 546.842 420.836 487.047 420.836 424.699C420.836 362.351 445.604 302.556 489.69 258.47L554.305 193.854L655.925 295.483L591.319 360.089C574.186 377.224 564.56 400.463 564.56 424.695C564.56 448.926 574.186 472.165 591.319 489.3C635.406 533.387 660.174 593.182 660.174 655.53C660.174 717.878 635.406 777.673 591.319 821.759V821.759Z" fill="white"/>
</g>
<defs>
<clipPath id="clip0_11236_12601">
<rect width="701" height="692.51" fill="white" transform="translate(190 193.854)"/>
</clipPath>
</defs>
</svg>
