<svg width="116" height="28" viewBox="0 0 116 28" fill="none" xmlns="http://www.w3.org/2000/svg">
<path d="M37.7354 4.21097C37.7354 5.0459 37.4887 5.71134 36.9944 6.20731C36.4328 6.79716 35.7001 7.09291 34.8012 7.09291C33.9388 7.09291 33.2061 6.79383 32.603 6.19485C31.9998 5.5967 31.6982 4.85399 31.6982 3.96839C31.6982 3.08279 31.9998 2.34091 32.6038 1.74193C33.2061 1.14377 33.9388 0.844696 34.8003 0.844696C35.2282 0.844696 35.6377 0.927773 36.0265 1.09476C36.4153 1.26257 36.7269 1.48522 36.9603 1.7627L36.4353 2.2894C36.0398 1.81586 35.4957 1.57993 34.8003 1.57993C34.1714 1.57993 33.6289 1.80091 33.1695 2.24371C32.7109 2.68651 32.4817 3.2614 32.4817 3.96839C32.4817 4.67537 32.7109 5.25027 33.1695 5.6939C33.3834 5.90766 33.6378 6.07651 33.9179 6.1905C34.198 6.30449 34.498 6.36134 34.8003 6.35768C35.4674 6.35768 36.0232 6.13503 36.4685 5.68974C36.7568 5.39897 36.9246 4.99605 36.9686 4.47848H34.8003V3.75987H37.6939C37.7221 3.91605 37.7354 4.06559 37.7354 4.21097Z" fill="black"/>
<path d="M37.7354 4.21265H37.6357C37.6349 5.02847 37.3964 5.66235 36.9229 6.13838H36.9221V6.14004C36.3779 6.70995 35.6784 6.99324 34.7994 6.99407C33.9604 6.99324 33.2584 6.70662 32.6727 6.12508C32.087 5.54355 31.7979 4.83241 31.7962 3.96924C31.7979 3.10607 32.087 2.39576 32.6718 1.81422C33.2584 1.23268 33.9604 0.946069 34.7994 0.944407C35.2148 0.944407 35.6094 1.02582 35.9858 1.18699C36.3629 1.34982 36.6612 1.56333 36.883 1.82835L36.9594 1.76355L36.8888 1.69376L36.3638 2.21964L36.4344 2.29025L36.5108 2.22628C36.0971 1.72948 35.5164 1.47859 34.7994 1.48108C34.4843 1.47751 34.1717 1.53688 33.8798 1.65571C33.5879 1.77455 33.3227 1.95045 33.0997 2.17312C32.6212 2.63419 32.3802 3.24065 32.3811 3.96924C32.3802 4.69782 32.6203 5.30511 33.0997 5.76619C33.3227 5.98886 33.5879 6.16476 33.8798 6.28359C34.1717 6.40242 34.4843 6.4618 34.7994 6.45822C35.489 6.45988 36.0755 6.22561 36.5374 5.76121C36.8465 5.45133 37.0217 5.02182 37.0674 4.48764L37.0766 4.37964H34.8991V3.86041H37.693V3.76071L37.595 3.77816C37.6224 3.92936 37.6357 4.07308 37.6357 4.21265H37.8351C37.8351 4.06062 37.8201 3.90527 37.791 3.74327L37.7769 3.66102H34.6997V4.57902H36.9678V4.47933L36.8689 4.47102C36.8249 4.97281 36.6654 5.34998 36.397 5.62081C35.9692 6.04699 35.445 6.25801 34.7994 6.25884C34.5098 6.26267 34.2224 6.2084 33.9542 6.09924C33.6859 5.99008 33.4422 5.82824 33.2376 5.6233C32.7989 5.19795 32.5813 4.65545 32.5796 3.97007C32.5813 3.28385 32.7989 2.74053 33.2376 2.31684C33.4422 2.11174 33.6858 1.94975 33.9541 1.84045C34.2223 1.73114 34.5098 1.67675 34.7994 1.68047C35.4724 1.68213 35.9808 1.90478 36.358 2.35422L36.4286 2.4373L37.0301 1.83416L37.094 1.77019L37.0359 1.70041C36.7908 1.40798 36.4651 1.17702 36.0647 1.00422C35.6652 0.83203 35.2345 0.743805 34.7994 0.745023C33.9147 0.745023 33.1512 1.05573 32.5314 1.67216C31.91 2.28693 31.5968 3.06121 31.5977 3.96924C31.5968 4.8781 31.91 5.65155 32.5323 6.26715C33.1512 6.88358 33.9147 7.19428 34.8003 7.19345C35.7208 7.19428 36.4851 6.88773 37.0658 6.27795L36.9935 6.20899L37.0641 6.27961C37.5792 5.76287 37.8351 5.06668 37.8342 4.21182H37.7345L37.7354 4.21265ZM42.3229 1.7137H39.6029V3.61035H42.0554V4.32896H39.6029V6.22561H42.3229V6.96001H38.8361V0.978468H42.3229V1.7137Z" fill="black"/>
<path d="M42.3219 1.71452V1.61483H39.5023V3.71086H41.9556V4.22926H39.5023V6.32612H42.2222V6.86114H38.9349V1.07898H42.2222V1.71452H42.3219V1.61483V1.71452H42.4216V0.878769H38.7363V7.05969H42.4216V6.12591H39.7017V4.42865H42.1541V3.51065H39.7017V1.81422H42.4216V1.71452H42.3219ZM45.5578 6.96083H44.7901V1.71452H43.122V0.978461H47.226V1.71369H45.5578V6.96" fill="black"/>
<path d="M45.5588 6.96083V6.86114H44.89V1.61483H43.2218V1.07815H47.1265V1.614H45.4591V6.96H45.5588V6.86031V6.96H45.6585V1.81422H47.3258V0.878769H43.0225V1.81338H44.6906V7.05969H45.6577V6.96H45.558L45.5588 6.96083ZM50.1953 6.96083V0.979292H50.963V6.96083H50.1953Z" fill="black"/>
<path d="M50.1936 6.96H50.2933V1.07898H50.8615V6.86114H50.1936V6.96083H50.2933H50.1936V7.06052H51.0601V0.878769H50.0947V7.05969H50.1944V6.96H50.1936ZM54.364 6.96H53.5964V1.71535H51.9291V0.978461H56.0322V1.71369H54.364V6.96Z" fill="black"/>
<path d="M54.3666 6.96001V6.86032H53.6986V1.61318H52.0304V1.07816H55.9351V1.61318H54.2669V6.96001H54.3666V6.86032V6.96001H54.4663V1.81256H56.1344V0.878779H51.8311V1.81256H53.4992V7.0597H54.4663V6.96001H54.3666ZM59.9909 5.68561C60.4328 6.13423 60.9737 6.35853 61.6134 6.35853C62.2531 6.35853 62.7939 6.13423 63.235 5.68561C63.6778 5.237 63.8996 4.6646 63.8996 3.96924C63.8996 3.27306 63.6778 2.69983 63.235 2.25204C62.7947 1.80343 62.2531 1.57912 61.6134 1.57912C60.9737 1.57912 60.4337 1.80343 59.9909 2.25204C59.5497 2.70066 59.3279 3.27306 59.3279 3.96924C59.3279 4.6646 59.5497 5.23783 59.9909 5.68561ZM63.8033 6.18656C63.2159 6.79136 62.4857 7.09293 61.6134 7.09293C60.7402 7.09293 60.01 6.79136 59.4243 6.1874C58.8369 5.5826 58.5445 4.84321 58.5445 3.96924C58.5445 3.09444 58.8369 2.35506 59.4251 1.75109C60.01 1.14629 60.7402 0.843887 61.6134 0.843887C62.4815 0.843887 63.2093 1.14795 63.7991 1.75524C64.389 2.3617 64.6831 3.10026 64.6831 3.96924C64.6831 4.84321 64.389 5.5826 63.8024 6.1874L63.8033 6.18656Z" fill="black"/>
<path d="M59.9904 5.68643L59.9198 5.75704C60.1386 5.98405 60.4019 6.16348 60.6932 6.28413C60.9846 6.40477 61.2976 6.46403 61.6129 6.45821C61.9282 6.46423 62.2413 6.40506 62.5327 6.2844C62.824 6.16375 63.0873 5.98421 63.306 5.75704C63.7671 5.29015 63.9989 4.68618 63.9989 3.96923C63.9989 3.25227 63.7671 2.6483 63.306 2.18307C63.0874 1.95576 62.8241 1.77606 62.5328 1.65526C62.2414 1.53446 61.9282 1.47516 61.6129 1.48107C61.2976 1.47515 60.9845 1.53437 60.6932 1.65502C60.4019 1.77567 60.1386 1.95516 59.9198 2.18224C59.4595 2.64913 59.2269 3.25227 59.2278 3.96923C59.2269 4.68618 59.4595 5.29015 59.9198 5.75704L59.9904 5.68643L60.061 5.61664C59.639 5.1863 59.428 4.64464 59.4271 3.96923C59.4271 3.29464 59.639 2.75298 60.061 2.32264C60.4872 1.8923 60.9965 1.68129 61.6129 1.68046C62.2293 1.68129 62.7394 1.8923 63.1639 2.32264C63.5876 2.75298 63.7986 3.29464 63.7986 3.96923C63.7986 4.64464 63.5868 5.1863 63.1639 5.61664C62.7394 6.04698 62.2293 6.258 61.6129 6.25883C60.9965 6.258 60.4872 6.04698 60.061 5.61664L59.9904 5.68643ZM63.8028 6.18738L63.7314 6.11843C63.1606 6.70412 62.4628 6.99323 61.6129 6.99406C60.7622 6.99323 60.0643 6.70329 59.4944 6.11843L59.4928 6.1151L59.4953 6.11843C58.9254 5.53024 58.6446 4.82243 58.6437 3.96923C58.6437 3.11769 58.9262 2.40904 59.4953 1.82086C60.0643 1.23517 60.7622 0.946058 61.6129 0.944396C62.457 0.946058 63.1531 1.23683 63.7272 1.82501C64.2988 2.41569 64.5821 3.1235 64.5829 3.96923C64.5821 4.8216 64.3004 5.53107 63.7314 6.11843L63.8028 6.18738L63.8742 6.25633C64.4774 5.63575 64.7823 4.86646 64.7823 3.96923C64.7823 3.07864 64.4766 2.31018 63.8701 1.68627C63.2636 1.0607 62.5043 0.744181 61.6129 0.745012C60.7173 0.744181 59.9547 1.05904 59.3524 1.68295V1.68212C58.7476 2.30353 58.4435 3.07283 58.4443 3.96923C58.4443 4.86646 58.7476 5.63575 59.3524 6.25716L59.3549 6.25966L59.3524 6.25633C59.9547 6.87941 60.7173 7.1951 61.6129 7.19344C62.5085 7.19427 63.2703 6.88024 63.8742 6.25633L63.8028 6.18738ZM65.7593 6.96V0.978457H66.693L69.5958 5.6316H69.629L69.5958 4.47932V0.978457H70.3634V6.96H69.5625L66.5261 2.08172H66.4928L66.5261 3.23483V6.96H65.7593Z" fill="black"/>
<path d="M65.7609 6.96085H65.8606V1.079H66.6399L69.5426 5.73214H69.7328L69.6971 4.47851V1.079H70.2654V6.86116H69.6198L66.5834 1.98371H66.3923L66.428 3.23817V6.86199H65.7609V6.96168H65.8606H65.7609V7.06137H66.6274V3.23485L66.5942 2.08008L66.4945 2.0834V2.18309H66.5277V2.0834L66.4438 2.13657L69.5093 7.06137H70.4647V0.880447H69.4977V4.48183L69.5309 5.6366L69.6306 5.63328V5.53359H69.5974V5.63328L69.6821 5.58094L66.7495 0.880447H65.6612V7.06137H65.7609V6.96168V6.96085ZM96.9746 23.9085H98.8322V11.4462H96.9746V23.9077V23.9085ZM113.703 15.9356L111.574 21.339H111.511L109.301 15.9356H107.3L110.613 23.4873L108.724 27.6877H110.662L115.768 15.9356H113.703ZM103.17 22.4929C102.561 22.4929 101.713 22.1888 101.713 21.4345C101.713 20.4725 102.771 20.1044 103.682 20.1044C104.5 20.1044 104.883 20.2806 105.379 20.5215C105.235 21.6754 104.242 22.4929 103.17 22.4929ZM103.395 15.6632C102.05 15.6632 100.657 16.2563 100.081 17.5706L101.729 18.2601C102.082 17.5706 102.738 17.3463 103.426 17.3463C104.387 17.3463 105.364 17.9237 105.379 18.9497V19.0776C105.043 18.8857 104.324 18.5974 103.442 18.5974C101.666 18.5974 99.8565 19.5752 99.8565 21.4029C99.8565 23.0703 101.314 24.1445 102.945 24.1445C104.195 24.1445 104.883 23.5837 105.315 22.9266H105.379V23.8878H107.171V19.11C107.171 16.8977 105.523 15.6623 103.395 15.6623V15.6632ZM91.9169 17.4526H89.275V13.1808H91.9169C93.3051 13.1808 94.0935 14.3323 94.0935 15.3159C94.0935 16.2821 93.3051 17.4526 91.9169 17.4526ZM91.8687 11.4462H87.4191V23.9077H89.275V19.1864H91.8687C93.9273 19.1864 95.9502 17.6936 95.9502 15.3151C95.9502 12.9382 93.9273 11.4453 91.8687 11.4453V11.4462ZM67.6019 22.4954C66.3192 22.4954 65.245 21.4196 65.245 19.9416C65.245 18.4487 66.3192 17.3563 67.6019 17.3563C68.8688 17.3563 69.8633 18.4479 69.8633 19.9416C69.8633 21.4196 68.8688 22.4954 67.6019 22.4954ZM69.7345 16.6335H69.6705C69.2535 16.135 68.4518 15.6864 67.4416 15.6864C65.3248 15.6864 63.3849 17.549 63.3849 19.9416C63.3849 22.3184 65.3248 24.1661 67.4416 24.1661C68.4518 24.1661 69.2535 23.7158 69.6705 23.2024H69.7345V23.8122C69.7345 25.4347 68.8688 26.302 67.474 26.302C66.3358 26.302 65.6297 25.4828 65.3405 24.7925L63.7214 25.4671C64.1866 26.5911 65.4211 27.9727 67.474 27.9727C69.6547 27.9727 71.4982 26.6875 71.4982 23.5555V15.9431H69.7345V16.6327V16.6335ZM72.7809 23.9077H74.641V11.4462H72.7809V23.9094V23.9077ZM77.3834 19.7962C77.3352 18.158 78.6503 17.323 79.5957 17.323C80.3343 17.323 80.959 17.6927 81.1675 18.2228L77.3834 19.7962ZM83.1556 18.3839C82.8033 17.4352 81.7283 15.6848 79.5317 15.6848C77.351 15.6848 75.5391 17.4036 75.5391 19.925C75.5391 22.3018 77.3352 24.1652 79.7403 24.1652C81.681 24.1652 82.8033 22.9764 83.2686 22.286L81.8255 21.3224C81.3445 22.0285 80.6865 22.4946 79.7403 22.4946C78.794 22.4946 78.1211 22.0609 77.6874 21.2102L83.3483 18.8649L83.1556 18.3831V18.3839ZM38.0597 16.9857V18.7844H42.3573C42.2285 19.7962 41.8921 20.5348 41.3787 21.049C40.7539 21.6754 39.7753 22.3658 38.0597 22.3658C35.4146 22.3658 33.346 20.2307 33.346 17.5806C33.346 14.9304 35.4146 12.7937 38.0597 12.7937C39.487 12.7937 40.5288 13.3561 41.2989 14.0789L42.5658 12.8103C41.4917 11.7818 40.0644 10.9951 38.0597 10.9951C34.4359 10.9951 31.3887 13.9501 31.3887 17.5806C31.3887 21.2102 34.4359 24.1652 38.0597 24.1652C40.0162 24.1652 41.4908 23.5231 42.6456 22.3176C43.8328 21.1296 44.2016 19.4598 44.2016 18.1098C44.2059 17.7329 44.1736 17.3564 44.1053 16.9857H38.0589H38.0597ZM49.0874 22.4954C47.8038 22.4954 46.6973 21.4353 46.6973 19.9258C46.6973 18.3997 47.8038 17.3563 49.0874 17.3563C50.3693 17.3563 51.4758 18.3997 51.4758 19.9258C51.4758 21.4353 50.3693 22.4954 49.0874 22.4954ZM49.0874 15.6856C46.7454 15.6856 44.8372 17.4684 44.8372 19.9258C44.8372 22.3666 46.7454 24.1661 49.0874 24.1661C51.4277 24.1661 53.3359 22.3666 53.3359 19.9258C53.3359 17.4684 51.4277 15.6856 49.0874 15.6856ZM58.3563 22.4954C57.0736 22.4954 55.967 21.4353 55.967 19.9258C55.967 18.3997 57.0736 17.3563 58.3563 17.3563C59.639 17.3563 60.7456 18.3997 60.7456 19.9258C60.7456 21.4353 59.639 22.4954 58.3563 22.4954ZM58.3563 15.6856C56.0152 15.6856 54.1077 17.4684 54.1077 19.9258C54.1077 22.3666 56.0152 24.1661 58.3563 24.1661C60.6974 24.1661 62.6057 22.3666 62.6057 19.9258C62.6057 17.4684 60.6974 15.6856 58.3563 15.6856Z" fill="black"/>
<path d="M0.999174 1.58825C0.665204 1.88982 0.46582 2.39327 0.46582 3.06204V2.91084V24.9628V24.8174C0.46582 25.4347 0.636958 25.9115 0.926897 26.2181L1.00084 26.2895C1.23511 26.5014 1.53585 26.6135 1.87979 26.6135C2.21625 26.6135 2.59508 26.5055 2.99468 26.2787L17.4418 18.0574L22.4048 15.2328C23.0353 14.8739 23.3892 14.4112 23.4482 13.9401V13.9385C23.3892 13.4658 23.0353 13.0039 22.4048 12.645L17.4418 9.82034L2.99468 1.59905C2.59425 1.37142 2.21542 1.26342 1.87813 1.26342C1.55472 1.25642 1.24066 1.37219 0.999174 1.58742V1.58825Z" fill="#00C1FF"/>
<path d="M1.00084 26.2895L0.926066 26.2189C0.636959 25.9115 0.46582 25.4355 0.46582 24.8182V24.9636V2.91502V3.06123C0.46582 2.39329 0.665204 1.88985 0.999174 1.58745L13.3311 13.9393L1.00084 26.2895Z" fill="url(#paint0_linear_6700_1617)"/>
<path d="M17.4407 18.0566L13.3301 13.9385L17.4407 9.82034L22.4037 12.645C23.0335 13.003 23.3874 13.4649 23.4464 13.9376V13.9393C23.3882 14.4112 23.0335 14.8739 22.4037 15.232L17.4407 18.0566Z" fill="url(#paint1_linear_6700_1617)"/>
<path d="M1.877 26.6144C1.55359 26.6214 1.23953 26.5056 0.998047 26.2904L13.3283 13.9385L17.4398 18.0566L2.99272 26.2787C2.59229 26.5055 2.21429 26.6135 1.877 26.6135V26.6144Z" fill="url(#paint2_linear_6700_1617)"/>
<path d="M13.33 13.9402L0.998047 1.58911C1.23232 1.37726 1.53223 1.26511 1.877 1.26511C2.21429 1.26511 2.59312 1.37311 2.99355 1.60074L17.4406 9.82203L13.33 13.9402Z" fill="url(#paint3_linear_6700_1617)"/>
<path d="M1.88048 26.7606C1.55664 26.7672 1.24221 26.6515 0.999866 26.4366C0.999107 26.4354 0.998274 26.4343 0.997373 26.4333L0.932573 26.371L0.926758 26.3643L1.0007 26.2895C1.23497 26.5022 1.53571 26.6144 1.88048 26.6135C2.21694 26.6135 2.59494 26.5072 2.99537 26.2796L17.4424 18.0574L17.5347 18.1505L17.4408 18.2037L2.99537 26.4258C2.63067 26.6318 2.28423 26.7398 1.97103 26.7581C1.9406 26.7597 1.91013 26.7605 1.87965 26.7606" fill="url(#paint4_linear_6700_1617)"/>
<path d="M0.926897 26.3643C0.636958 26.0569 0.46582 25.5809 0.46582 24.9636V24.8183C0.46582 25.4355 0.636958 25.9124 0.926897 26.2189L1.00084 26.2904L0.926066 26.3643H0.926897Z" fill="url(#paint5_linear_6700_1617)"/>
<path d="M17.5336 18.1505L17.4414 18.0583L22.4036 15.2337C23.0333 14.8756 23.3872 14.4129 23.4462 13.9418C23.4462 14.1146 23.408 14.2874 23.3316 14.4552C23.177 14.795 22.8672 15.1149 22.4036 15.3799L17.5336 18.1505Z" fill="url(#paint6_linear_6700_1617)"/>
<path d="M23.447 13.9385C23.3872 13.4658 23.0341 13.0039 22.4036 12.645L17.4414 9.82119L17.5336 9.72897L22.4036 12.5004C23.0981 12.8959 23.4462 13.4168 23.447 13.9385Z" fill="url(#paint7_linear_6700_1617)"/>
<path d="M0.466651 3.06039V2.90836C0.466651 2.85353 0.467482 2.80036 0.469974 2.74719V2.73722C0.500713 2.20553 0.665204 1.79014 0.926897 1.51433L0.999174 1.58744C0.665204 1.88901 0.46582 2.39245 0.46582 3.06039H0.466651Z" fill="url(#paint8_linear_6700_1617)"/>
<path d="M17.4416 9.82038L2.99454 1.59826C2.59494 1.37063 2.21528 1.26346 1.87799 1.26346C1.55486 1.25667 1.24114 1.37242 0.999866 1.58746L0.926758 1.51352C0.949189 1.48943 0.973281 1.46617 0.997373 1.44374L0.999866 1.44125C1.23924 1.22797 1.54995 1.11234 1.87051 1.11725H1.87882C2.21528 1.11725 2.59494 1.22525 2.99537 1.45288L17.5347 9.72734L17.4416 9.82038Z" fill="url(#paint9_linear_6700_1617)"/>
<defs>
<linearGradient id="paint0_linear_6700_1617" x1="8.3465" y1="2.6824" x2="-2.2807" y2="13.327" gradientUnits="userSpaceOnUse">
<stop stop-color="#00A0FF"/>
<stop offset="0.007" stop-color="#00A1FF"/>
<stop offset="0.26" stop-color="#00BEFF"/>
<stop offset="0.512" stop-color="#00D2FF"/>
<stop offset="0.76" stop-color="#00DFFF"/>
<stop offset="1" stop-color="#00E3FF"/>
</linearGradient>
<linearGradient id="paint1_linear_6700_1617" x1="24.2148" y1="13.867" x2="0.130816" y2="13.867" gradientUnits="userSpaceOnUse">
<stop stop-color="#FFE000"/>
<stop offset="0.409" stop-color="#FFBD00"/>
<stop offset="0.775" stop-color="#FFA500"/>
<stop offset="1" stop-color="#FF9C00"/>
</linearGradient>
<linearGradient id="paint2_linear_6700_1617" x1="15.2565" y1="17.8547" x2="-2.75205" y2="35.7611" gradientUnits="userSpaceOnUse">
<stop stop-color="#FF3A44"/>
<stop offset="1" stop-color="#C31162"/>
</linearGradient>
<linearGradient id="paint3_linear_6700_1617" x1="-2.18048" y1="-0.24274" x2="5.84559" y2="7.75009" gradientUnits="userSpaceOnUse">
<stop stop-color="#32A071"/>
<stop offset="0.069" stop-color="#2DA771"/>
<stop offset="0.476" stop-color="#15CF74"/>
<stop offset="0.801" stop-color="#06E775"/>
<stop offset="1" stop-color="#00F076"/>
</linearGradient>
<linearGradient id="paint4_linear_6700_1617" x1="15.2509" y1="20.7118" x2="0.828728" y2="35.1572" gradientUnits="userSpaceOnUse">
<stop stop-color="#CC2E36"/>
<stop offset="1" stop-color="#9C0E4E"/>
</linearGradient>
<linearGradient id="paint5_linear_6700_1617" x1="2.10825" y1="2.68573" x2="-7.25286" y2="12.0618" gradientUnits="userSpaceOnUse">
<stop stop-color="#008DE0"/>
<stop offset="0.007" stop-color="#008DE0"/>
<stop offset="0.26" stop-color="#00A7E0"/>
<stop offset="0.512" stop-color="#00B8E0"/>
<stop offset="0.76" stop-color="#00C4E0"/>
<stop offset="1" stop-color="#00C7E0"/>
</linearGradient>
<linearGradient id="paint6_linear_6700_1617" x1="24.2138" y1="13.941" x2="0.133158" y2="13.941" gradientUnits="userSpaceOnUse">
<stop stop-color="#E0C500"/>
<stop offset="0.409" stop-color="#E0A600"/>
<stop offset="0.775" stop-color="#E09100"/>
<stop offset="1" stop-color="#E08900"/>
</linearGradient>
<linearGradient id="paint7_linear_6700_1617" x1="24.2147" y1="13.9393" x2="0.133991" y2="13.9393" gradientUnits="userSpaceOnUse">
<stop stop-color="#FFE840"/>
<stop offset="0.409" stop-color="#FFCE40"/>
<stop offset="0.775" stop-color="#FFBC40"/>
<stop offset="1" stop-color="#FFB540"/>
</linearGradient>
<linearGradient id="paint8_linear_6700_1617" x1="2.09828" y1="2.699" x2="-6.91806" y2="11.339" gradientUnits="userSpaceOnUse">
<stop stop-color="#40B8FF"/>
<stop offset="0.007" stop-color="#40B9FF"/>
<stop offset="0.26" stop-color="#40CEFF"/>
<stop offset="0.512" stop-color="#40DDFF"/>
<stop offset="0.76" stop-color="#40E7FF"/>
<stop offset="1" stop-color="#40EAFF"/>
</linearGradient>
<linearGradient id="paint9_linear_6700_1617" x1="-2.19693" y1="2.36755" x2="4.24319" y2="8.81848" gradientUnits="userSpaceOnUse">
<stop stop-color="#65B895"/>
<stop offset="0.069" stop-color="#62BD95"/>
<stop offset="0.476" stop-color="#50DB97"/>
<stop offset="0.801" stop-color="#44ED98"/>
<stop offset="1" stop-color="#40F498"/>
</linearGradient>
</defs>
</svg>
