<svg width="64" height="64" viewBox="0 0 64 64" id="img" xmlns="http://www.w3.org/2000/svg">
<g clip-path="url(#clip0)">
<path fill-rule="evenodd" clip-rule="evenodd" d="M0 12C0 9.87827 0.842855 7.84344 2.34315 6.34315C3.84344 4.84285 5.87827 4 8 4H62C62.5304 4 63.0391 4.21071 63.4142 4.58579C63.7893 4.96086 64 5.46957 64 6C64 6.53043 63.7893 7.03914 63.4142 7.41421C63.0391 7.78929 62.5304 8 62 8H60V16C61.0609 16 62.0783 16.4214 62.8284 17.1716C63.5786 17.9217 64 18.9391 64 20V54C64 55.5913 63.3679 57.1174 62.2426 58.2426C61.1174 59.3679 59.5913 60 58 60H10C7.34784 60 4.8043 58.9464 2.92893 57.0711C1.05357 55.1957 0 52.6522 0 50L0 12ZM4 18.928V50C4 51.5913 4.63214 53.1174 5.75736 54.2426C6.88258 55.3679 8.4087 56 10 56H58C58.5304 56 59.0391 55.7893 59.4142 55.4142C59.7893 55.0391 60 54.5304 60 54V20H8C6.59544 20.0018 5.2154 19.632 4 18.928ZM4 12C4 13.0609 4.42143 14.0783 5.17157 14.8284C5.92172 15.5786 6.93913 16 8 16H56V8H8C6.93913 8 5.92172 8.42143 5.17157 9.17157C4.42143 9.92172 4 10.9391 4 12Z"/>
<g clip-path="url(#clip1)">
<path d="M32.1685 26.073C32.757 25.7655 33.4753 26.4788 33.1627 27.068C32.9811 27.5482 32.2926 27.676 31.9409 27.3099C31.5683 26.9586 31.6898 26.2642 32.1685 26.073ZM25.839 26.7567C26.1965 26.6093 26.649 26.9375 26.6126 27.3279C26.6505 27.7517 26.1333 28.0637 25.769 27.8622C25.2862 27.6749 25.3414 26.8896 25.839 26.7567ZM38.8025 27.8741C38.2439 27.8065 38.1555 26.9264 38.6933 26.7491C39.1105 26.5453 39.4932 26.9276 39.5542 27.3238C39.4667 27.6622 39.1841 27.9719 38.8025 27.8741ZM27.2792 29.4563C27.8769 29.0775 28.7297 29.6416 28.6377 30.3372C28.6067 31.0396 27.6757 31.4465 27.1504 30.9717C26.6426 30.5987 26.7195 29.7431 27.2792 29.4563ZM36.4027 29.8582C36.6693 29.1696 37.7497 29.1488 38.0532 29.8191C38.3531 30.3407 37.9842 30.9867 37.4497 31.164C36.7418 31.2965 36.0693 30.5296 36.4027 29.8582ZM31.4063 31.125C31.4005 30.5331 31.9385 30.0921 32.4998 30.0518C32.8721 30.1266 33.2779 30.2855 33.4376 30.662C33.7353 31.1814 33.471 31.8965 32.9332 32.1348C32.6872 32.2729 32.3964 32.2211 32.1286 32.205C31.7191 32.0036 31.3743 31.6086 31.4063 31.125ZM21.9934 31.9874C22.5394 31.6511 23.2759 32.2648 23.0692 32.8591C22.9554 33.3732 22.2659 33.5823 21.8717 33.2541C21.4509 32.9467 21.5176 32.2073 21.9934 31.9874ZM42.2063 31.9863C42.6695 31.6259 43.4339 32.0393 43.3786 32.6254C43.4097 33.1597 42.7489 33.5627 42.2891 33.2876C41.7827 33.0595 41.731 32.2788 42.2063 31.9863ZM34.0534 33.0503C34.8178 32.7751 35.7256 33.1044 36.1613 33.7873C36.736 34.6221 36.4302 35.8935 35.5384 36.3725C34.6143 36.9391 33.265 36.4588 32.9237 35.4247C32.5363 34.499 33.1007 33.3405 34.0534 33.0503ZM29.5687 33.1413C30.4158 32.7406 31.5559 33.0768 31.9651 33.9452C32.4466 34.7904 32.0743 35.9673 31.2134 36.4038C30.3514 36.8943 29.1353 36.5224 28.7182 35.6149C28.2504 34.7374 28.6658 33.5454 29.5687 33.1413ZM25.0782 34.6797C25.1426 34.1328 25.6575 33.7769 26.1769 33.7401C26.7367 33.8077 27.1838 34.2433 27.2447 34.811C27.2079 35.3729 26.7746 35.9222 26.1803 35.9188C25.5265 35.9752 24.9533 35.3234 25.0782 34.6797ZM38.3417 33.859C39.0129 33.4675 39.9449 34.0374 39.9151 34.8102C39.9611 35.6289 38.9296 36.2058 38.2612 35.7256C37.5669 35.3257 37.621 34.1995 38.3417 33.859ZM27.7436 36.7445C28.5286 36.5281 29.4263 36.8989 29.8113 37.622C30.233 38.3498 30.0606 39.3609 29.4056 39.8947C28.5655 40.6777 27.0161 40.3633 26.569 39.2947C26.0552 38.3152 26.6793 37.0024 27.7436 36.7445ZM36.2498 36.7405C37.013 36.5217 37.9095 36.8165 38.3198 37.5132C38.8622 38.31 38.6033 39.4985 37.7957 40.0121C36.9498 40.6086 35.6395 40.2954 35.174 39.3628C34.6097 38.3981 35.1775 37.0347 36.2498 36.7405ZM22.6945 37.6496C23.3726 37.3925 24.1243 38.1424 23.8495 38.8161C23.6817 39.4299 22.8185 39.6567 22.3726 39.2042C21.8509 38.7793 22.0441 37.8338 22.6945 37.6496ZM41.0747 38.6273C41.0552 38.0642 41.4662 37.5656 42.0424 37.5344C42.5068 37.6082 42.9584 37.9836 42.9217 38.4902C42.9642 39.1593 42.1596 39.6141 41.5907 39.2997C41.3241 39.1639 41.1873 38.8898 41.0747 38.6273ZM19.3603 37.9801C19.7682 37.8016 20.2729 38.1559 20.1797 38.6099C20.1578 39.124 19.4005 39.3217 19.1222 38.8921C18.8764 38.5938 19.0236 38.1339 19.3603 37.9801ZM45.0836 37.9698C45.3708 37.7648 45.8317 37.9122 45.9455 38.2485C46.1386 38.6158 45.7846 39.119 45.3721 39.0569C44.7929 39.1098 44.6055 38.2253 45.0836 37.9698ZM29.9595 40.4375C31.033 40.1577 32.187 41.0547 32.1938 42.1624C32.2638 43.2817 31.1273 44.2743 30.0284 44.0158C29.1789 43.8787 28.5124 43.0588 28.54 42.1987C28.5377 41.376 29.1572 40.6114 29.9595 40.4375ZM34.2109 40.4352C35.3005 40.13 36.4889 41.0431 36.4716 42.1764C36.5291 43.275 35.4281 44.2341 34.3521 44.0162C33.3396 43.885 32.5925 42.7702 32.8752 41.7857C33.0179 41.1295 33.565 40.596 34.2109 40.4352ZM26.0139 41.117C26.7678 40.988 27.4747 41.831 27.1689 42.5484C26.9459 43.3129 25.8357 43.5202 25.3448 42.8958C24.769 42.2961 25.1989 41.1998 26.0139 41.117ZM38.4818 41.1507C39.1541 40.8685 39.9793 41.4512 39.9276 42.1824C39.9546 42.9874 38.9358 43.5424 38.2783 43.0726C37.5337 42.6508 37.6692 41.4094 38.4818 41.1507ZM41.9667 44.6534C41.7034 44.1616 42.1816 43.5098 42.7265 43.6009C42.9977 43.5963 43.1873 43.8104 43.361 43.9901C43.3966 44.2815 43.4564 44.6291 43.215 44.8537C42.8872 45.2694 42.1447 45.1508 41.9667 44.6534ZM21.9911 43.7378C22.5004 43.3981 23.2331 43.9047 23.1187 44.5013C23.0578 45.0289 22.3945 45.3304 21.9577 45.0311C21.4888 44.7593 21.5061 43.9855 21.9911 43.7378ZM32.0513 44.8422C32.718 44.5474 33.5672 45.129 33.5041 45.8648C33.5535 46.6778 32.503 47.2409 31.8513 46.7527C31.1273 46.3334 31.2479 45.1001 32.0513 44.8422ZM27.3918 45.9315C27.9596 45.6321 28.7216 46.1492 28.6699 46.7859C28.6871 47.3088 28.1779 47.7544 27.663 47.6772C27.2366 47.668 26.9585 47.2849 26.8217 46.9205C26.8287 46.5235 26.9918 46.0813 27.3918 45.9315ZM36.8302 45.9407C37.4141 45.5791 38.2439 46.0984 38.1887 46.7794C38.2037 47.4912 37.2658 47.9471 36.7222 47.4795C36.1958 47.113 36.2601 46.2321 36.8302 45.9407ZM38.4715 50.0068C38.2118 49.613 38.5176 49.1386 38.9393 49.0488C39.2784 49.1179 39.637 49.3735 39.5657 49.7674C39.5163 50.3005 38.7382 50.4641 38.4715 50.0068ZM25.4425 49.6649C25.546 49.3528 25.7965 49.0426 26.1632 49.1237C26.6976 49.1617 26.8563 49.969 26.3885 50.2178C25.9678 50.502 25.4798 50.1128 25.4425 49.6649ZM31.7283 50.0229C31.8306 49.5612 32.427 49.3367 32.8202 49.5819C33.0799 49.6937 33.1558 49.9849 33.2225 50.2325C33.1868 50.3614 33.155 50.4905 33.1236 50.6194C32.9627 50.8106 32.7559 51.0017 32.4881 50.9948C31.9903 51.0533 31.5413 50.4894 31.7283 50.0229Z"/>
</g>
</g>
</svg>
