<svg width="45" height="45" viewBox="0 0 45 45" fill="none" xmlns="http://www.w3.org/2000/svg">
<path d="M18.75 41.25H26.25H18.75ZM9.375 16.875C9.375 13.394 10.7578 10.0556 13.2192 7.59422C15.6806 5.13281 19.019 3.75 22.5 3.75C25.981 3.75 29.3194 5.13281 31.7808 7.59422C34.2422 10.0556 35.625 13.394 35.625 16.875C35.6262 18.9883 35.1151 21.0703 34.1355 22.9428C33.1558 24.8153 31.7368 26.4223 30 27.6263L28.9838 32.4375C28.8492 33.3243 28.4013 34.1335 27.7211 34.7184C27.041 35.3032 26.1738 35.6248 25.2769 35.625H19.7231C18.8262 35.6248 17.959 35.3032 17.2789 34.7184C16.5988 34.1335 16.1508 33.3243 16.0163 32.4375L15 27.6469C13.2626 26.4387 11.8436 24.8279 10.864 22.952C9.8845 21.0762 9.37361 18.9912 9.375 16.875V16.875Z" stroke="white" stroke-width="3" stroke-linecap="round" stroke-linejoin="round"/>
<path d="M15 28.125H30" stroke="white" stroke-width="3" stroke-linecap="round" stroke-linejoin="round"/>
</svg>
