<svg width="130" height="35" viewBox="0 0 130 35" fill="none" xmlns="http://www.w3.org/2000/svg">
<g clip-path="url(#clip0_6849_1570)">
<path d="M30.7822 19.3354C28.9709 21.1522 26.5996 22.3047 24.0519 22.6065C24.0797 20.1382 23.3802 17.7163 22.0405 15.643C22.7183 15.7431 23.41 15.6851 24.0616 15.4736C24.7132 15.262 25.3071 14.9027 25.7968 14.4237C27.5677 12.6931 27.5436 9.80442 25.7931 8.05395L22.688 4.94879L27.6344 0L30.7804 3.14641C34.1349 6.50091 34.9724 11.4191 33.2923 15.555C32.7173 16.9705 31.8637 18.2561 30.7822 19.3354V19.3354Z" fill="white"/>
<path d="M11.4474 28.7732L6.50096 33.722L3.35501 30.5756C0.000515732 27.2211 -0.83695 22.3029 0.84308 18.167C1.61463 16.2744 2.87824 14.6227 4.50296 13.3828C6.12769 12.143 8.05441 11.3601 10.0835 11.1155C10.0557 13.5838 10.7552 16.0056 12.0949 18.0789C11.4171 17.9789 10.7254 18.0369 10.0738 18.2484C9.42222 18.4599 8.82833 18.8192 8.33856 19.2983C6.56769 21.0288 6.5918 23.9175 8.34227 25.668L11.4474 28.7732Z" fill="white"/>
<path d="M19.5421 30.5756L16.3957 33.722L11.4474 28.7732L14.5933 25.6273C15.4276 24.7929 15.8964 23.6613 15.8964 22.4813C15.8964 21.3014 15.4276 20.1698 14.5933 19.3354C12.4465 17.1886 11.2405 14.2769 11.2405 11.2409C11.2405 8.20488 12.4465 5.2932 14.5933 3.14641L17.7397 0L22.6881 4.94879L19.5421 8.09473C18.7078 8.92911 18.2391 10.0607 18.2391 11.2407C18.2391 12.4206 18.7078 13.5522 19.5421 14.3866C21.6889 16.5334 22.895 19.4451 22.895 22.4811C22.895 25.5171 21.6889 28.4288 19.5421 30.5756V30.5756Z" fill="white"/>
</g>
<path d="M51.6303 27.2818C50.4762 27.2818 49.4886 27.0821 48.6674 26.6826C47.8462 26.2831 47.0695 25.5729 46.3371 24.552V26.9156H41.8428V1.51466H46.3371V10.6031C47.0473 9.58216 47.813 8.87196 48.6341 8.47246C49.4775 8.05078 50.4762 7.83994 51.6303 7.83994C53.2505 7.83994 54.682 8.25053 55.9248 9.0717C57.1677 9.89288 58.1331 11.047 58.8212 12.534C59.5092 13.9988 59.8532 15.6744 59.8532 17.5609C59.8532 19.4474 59.5092 21.1341 58.8212 22.6211C58.1331 24.0859 57.1677 25.2289 55.9248 26.0501C54.682 26.8713 53.2505 27.2818 51.6303 27.2818ZM50.5983 23.4201C52.0187 23.4201 53.1617 22.8763 54.0273 21.7888C54.8928 20.6791 55.3256 19.2698 55.3256 17.5609C55.3256 15.852 54.8928 14.4537 54.0273 13.3662C53.1617 12.2565 52.0187 11.7017 50.5983 11.7017C49.1779 11.7017 48.0127 12.2454 47.1027 13.3329C46.215 14.4204 45.7711 15.8298 45.7711 17.5609C45.7711 19.292 46.215 20.7013 47.1027 21.7888C48.0127 22.8763 49.1779 23.4201 50.5983 23.4201Z" fill="white"/>
<path d="M71.7863 27.2818C69.8998 27.2818 68.2353 26.8713 66.7927 26.0501C65.3501 25.2289 64.2293 24.097 63.4303 22.6544C62.6535 21.1896 62.2651 19.5362 62.2651 17.6941C62.2651 15.9851 62.6091 14.3872 63.2971 12.9002C64.0073 11.391 65.0615 10.1703 66.4598 9.23816C67.8802 8.30601 69.6113 7.83994 71.6532 7.83994C73.3399 7.83994 74.8935 8.19504 76.3139 8.90525C77.7343 9.59326 78.8773 10.6697 79.7429 12.1345C80.6084 13.5771 81.0412 15.3748 81.0412 17.5276V18.493H66.9258C66.9924 19.2698 67.2255 20.0022 67.6249 20.6902C68.0688 21.5558 68.657 22.2327 69.3894 22.721C70.144 23.1871 70.9984 23.4201 71.9528 23.4201C72.9737 23.4201 73.8504 23.1649 74.5828 22.6544C75.3152 22.1218 75.8367 21.4448 76.1474 20.6237H80.7416C80.1423 22.5989 79.0881 24.208 77.5789 25.4508C76.0698 26.6715 74.1389 27.2818 71.7863 27.2818ZM76.4471 15.1307C76.3583 14.4204 76.1252 13.8434 75.7479 13.3995C75.3263 12.7559 74.7714 12.2676 74.0834 11.9347C73.3954 11.5796 72.6297 11.4021 71.7863 11.4021C70.9429 11.4021 70.1773 11.5685 69.4892 11.9014C68.8234 12.2343 68.2797 12.7337 67.858 13.3995C67.4585 13.8878 67.2144 14.4648 67.1256 15.1307H76.4471Z" fill="white"/>
<path d="M92.7436 34.0066C90.5242 34.0066 88.6156 33.5405 87.0176 32.6084C85.4418 31.6984 84.4653 30.1338 84.088 27.9144H88.6156C88.9041 28.8243 89.3813 29.4791 90.0471 29.8785C90.7129 30.3002 91.6007 30.5111 92.7104 30.5111C94.1752 30.5111 95.2627 30.1782 95.9729 29.5123C96.6831 28.8465 97.0382 27.9366 97.0382 26.7825V24.1525C96.3058 25.1734 95.5179 25.8836 94.6745 26.2831C93.8533 26.6826 92.8657 26.8824 91.7116 26.8824C90.1137 26.8824 88.6932 26.4829 87.4504 25.6839C86.2075 24.8627 85.2421 23.7308 84.5541 22.2882C83.8661 20.8456 83.5221 19.2254 83.5221 17.4277C83.5221 15.5856 83.8661 13.9433 84.5541 12.5007C85.2421 11.0359 86.2075 9.89288 87.4504 9.0717C88.6932 8.25053 90.1137 7.83994 91.7116 7.83994C92.8657 7.83994 93.8533 8.05078 94.6745 8.47246C95.5179 8.87196 96.3058 9.58216 97.0382 10.6031V8.23943H101.532V25.7172C101.532 28.7134 100.745 30.844 99.1688 32.109C97.6152 33.3741 95.4735 34.0066 92.7436 34.0066ZM92.7769 23.0206C93.7091 23.0206 94.5414 22.7765 95.2738 22.2882C96.0062 21.7999 96.5721 21.123 96.9716 20.2575C97.3933 19.3919 97.6041 18.4265 97.6041 17.3611C97.6041 16.2958 97.3933 15.3304 96.9716 14.4648C96.5721 13.5993 96.0062 12.9224 95.2738 12.4341C94.5414 11.9458 93.7091 11.7017 92.7769 11.7017C91.3565 11.7017 90.2135 12.2454 89.348 13.3329C88.4824 14.3983 88.0496 15.741 88.0496 17.3611C88.0496 18.9813 88.4824 20.3351 89.348 21.4226C90.2135 22.488 91.3565 23.0206 92.7769 23.0206Z" fill="white"/>
<path d="M109.903 26.9156H105.408V8.23943H109.903V26.9156ZM107.672 6.17539C106.895 6.17539 106.241 5.94235 105.708 5.47628C105.175 5.01021 104.909 4.38877 104.909 3.61199C104.909 2.87958 105.175 2.26925 105.708 1.78098C106.241 1.29272 106.895 1.04858 107.672 1.04858C108.427 1.04858 109.07 1.29272 109.603 1.78098C110.158 2.26925 110.435 2.87958 110.435 3.61199C110.435 4.36658 110.169 4.98801 109.636 5.47628C109.104 5.94235 108.449 6.17539 107.672 6.17539Z" fill="white"/>
<path d="M113.821 26.9156V8.23943H118.315V10.6031C119.025 9.60436 119.791 8.89415 120.612 8.47246C121.433 8.05078 122.365 7.83994 123.408 7.83994C126.294 7.83994 128.235 8.88305 129.234 10.9693C129.567 11.7017 129.778 12.4452 129.867 13.1998C129.956 13.9544 130 14.942 130 16.1627V26.9156H125.539V16.0961C125.539 14.2984 125.228 13.0555 124.607 12.3675C124.074 11.8127 123.286 11.5352 122.243 11.5352C120.978 11.5352 120.035 11.9125 119.413 12.6671C119.036 13.111 118.759 13.7102 118.581 14.4648C118.404 15.1972 118.315 16.1738 118.315 17.3944V26.9156H113.821Z" fill="white"/>
<defs>
<clipPath id="clip0_6849_1570">
<rect width="34.135" height="33.7216" fill="white"/>
</clipPath>
</defs>
</svg>
