<svg width="512" height="349" viewBox="0 0 512 349" fill="none" xmlns="http://www.w3.org/2000/svg">
<path d="M117.633 0.0012007C117.348 -0.00111623 117.062 5.864e-05 116.777 0.00353405C81.6422 0.292989 46.4945 0.0470945 11.3548 0.128651C11.3674 8.77607 11.3709 17.4241 11.3716 26.072C16.9367 34.7729 23.812 42.8785 36.7582 50.1026C52.0606 58.6415 60.6768 61.8658 83.6808 69.0848C135.371 85.306 159.67 129.125 159.296 160.633C158.952 189.509 146.569 209.679 130.934 220.471C136.721 219.521 142.386 217.902 147.831 215.16C174.667 203.044 194.597 175.161 193.815 145.236C193.663 119.288 177.754 94.811 155.321 82.2917C173.907 59.9269 168.024 22.1353 142.823 7.24128C135.286 2.61536 126.479 0.0621683 117.633 0.00173101V0.0012007ZM11.3489 75.5401C11.3272 107.259 11.3188 138.978 11.4662 170.69C12.6705 195.357 32.5726 217.636 57.1634 221.013C69.8884 222.48 82.8635 221.363 95.7132 221.713C101.354 221.657 107.065 221.804 112.757 221.762C115.187 218.435 117.437 214.755 119.196 210.786C126.988 193.204 126.531 173.408 123.864 162.407C119.756 145.463 110.627 130.446 93.4383 121.47C69.572 109.008 50.57 108.024 31.8905 95.106C22.4698 88.5909 16.0106 82.2381 11.3489 75.5401V75.5401Z" fill="white"/>
<path d="M0.989584 4.18879C0.989584 4.18879 2.71502 26.81 19.779 42.6809C22.5114 45.2222 30.7223 53.6044 45.4431 60.1926C63.9155 68.4599 88.6824 73.8436 111.295 78.3189C156.819 87.3289 176.775 120.519 176.382 151.986C175.991 183.261 145.956 212.67 129.191 222.662L113.522 231.842C113.522 231.842 130.369 219.804 137.9 202.129C145.387 184.56 144.969 164.79 142.425 153.808C138.507 136.892 130.18 122.888 113.717 113.948C90.8594 101.536 48.6799 99.2775 30.7932 86.4023C12.0148 72.8853 5.92051 59.7635 3.51744 50.1759C-2.45824 26.3344 0.989561 4.18872 0.989561 4.18872L0.989584 4.18879Z" fill="white"/>
<path d="M11.3489 75.5406C10.5432 81.2003 12.6118 86.4431 15.4958 91.2255C21.0763 100.654 29.7382 106.966 39.2682 112.56C59.2892 123.082 83.2766 123.935 102.315 136.588C117.359 147.01 122.816 168.042 124.45 185.613C124.695 188.272 124.696 193.36 125.142 187.827C127.71 166.41 120.954 143.032 104.235 128.724C90.6413 117.578 73.2476 112.936 56.9729 107.169C39.1695 101.342 22.3894 90.9202 11.3489 75.5406V75.5406Z" fill="black" fill-opacity="0.25"/>
<path d="M440.177 10.6761C428.169 10.6761 417.584 14.9414 409.113 23.2247C400.637 31.5118 396.246 41.9541 396.246 53.8172C396.246 61.6745 398.588 69.2236 403.111 76.1964C406.199 80.9583 409.966 84.8808 414.273 88.0236C402.747 92.8106 392.946 100.392 385.1 110.7C385.092 110.709 385.084 110.718 385.076 110.727C375.916 123.001 371.243 136.701 371.243 151.445C371.243 170.342 378.269 186.986 391.978 200.694C391.983 200.7 391.989 200.706 391.995 200.712C405.718 214.252 422.534 221.166 441.754 221.166C460.971 221.166 477.709 214.25 491.259 200.703C504.978 187.163 512 170.507 512 151.447C512 136.338 507.05 122.277 497.368 109.662L497.35 109.654C489.373 99.0733 479.348 91.5607 467.558 87.214C471.821 84.002 475.463 80.1625 478.311 75.631C482.49 68.9835 484.622 61.6217 484.622 53.8198C484.622 41.9405 480.123 31.4853 471.469 23.2056C462.993 14.9284 452.326 10.6788 440.165 10.6788L440.177 10.6761ZM237.252 13.3069C236.41 13.3069 235.598 13.6186 234.973 14.182C234.347 14.7453 233.952 15.5203 233.865 16.3576L224.654 104.25C224.605 104.725 224.655 105.204 224.803 105.658C224.95 106.112 225.192 106.529 225.511 106.884C225.83 107.239 226.22 107.522 226.656 107.716C227.092 107.91 227.564 108.011 228.041 108.011H237.252C237.802 108.011 238.345 107.877 238.832 107.621C239.32 107.366 239.738 106.996 240.051 106.543C246.079 97.8358 253.632 91.0326 262.829 86.0161C262.844 86.0083 262.859 86.0005 262.874 85.9925C272.046 80.8228 281.68 78.2733 291.989 78.2733C309.588 78.2733 324.232 84.4865 336.653 97.2426C336.659 97.2485 336.664 97.2544 336.67 97.2604C349.089 109.847 355.162 124.695 355.162 142.498C355.162 160.115 349.097 174.875 336.678 187.466C324.267 199.872 309.607 205.933 291.991 205.933C278.141 205.933 265.722 201.666 254.324 192.95C242.91 184.222 235.323 173.321 231.309 159.94C231.098 159.239 230.666 158.624 230.079 158.187C229.491 157.75 228.778 157.514 228.045 157.514H219.889C219.374 157.514 218.867 157.631 218.404 157.855C217.941 158.08 217.535 158.406 217.216 158.81C216.897 159.214 216.674 159.685 216.563 160.187C216.453 160.69 216.457 161.211 216.577 161.711C220.609 178.573 229.899 192.672 244.127 203.617C244.133 203.623 244.139 203.629 244.145 203.634C258.528 214.558 274.609 220.117 291.992 220.117C313.482 220.117 332.143 212.509 347.278 197.557C347.278 197.557 347.278 197.556 347.278 197.556C362.584 182.433 370.395 163.844 370.395 142.504C370.395 121.004 362.687 102.335 347.555 87.2037C332.425 71.8983 313.662 64.1015 291.991 64.1015C280.843 64.1015 270.176 66.3055 260.104 70.7004C253.326 73.6579 247.397 77.5966 242.221 82.3292L247.954 27.7558H345.148C346.051 27.7556 346.917 27.3967 347.556 26.7582C348.194 26.1196 348.553 25.2535 348.553 24.3504V16.7194C348.553 15.8161 348.195 14.9497 347.556 14.3109C346.917 13.672 346.051 13.3129 345.148 13.3128L237.252 13.3069ZM440.177 24.8549C448.108 24.8549 454.714 27.6462 460.663 33.5948C460.673 33.6052 460.684 33.6157 460.694 33.626C466.632 39.403 469.4 45.814 469.4 53.5531C469.4 61.284 466.625 67.802 460.678 73.7566C454.741 79.5267 448.122 82.2513 440.175 82.2513C432.43 82.2513 425.901 79.5409 419.959 73.7754C414.189 67.8314 411.477 61.3015 411.477 53.5531C411.477 45.7909 414.183 39.3627 419.953 33.5934C425.912 27.6339 432.436 24.8535 440.175 24.8535L440.177 24.8549ZM441.755 96.4315C456.896 96.4318 469.534 101.772 480.379 112.784C491.233 123.805 496.505 136.556 496.505 151.709C496.505 166.862 491.233 179.61 480.38 190.63C480.38 190.631 480.38 190.633 480.38 190.633C469.543 201.461 456.9 206.722 441.756 206.722C426.611 206.722 413.867 201.455 402.851 190.614C392.003 179.591 386.742 166.932 386.742 151.971C386.742 136.83 392.088 124.09 403.113 113.065C403.119 113.06 403.125 113.055 403.131 113.05C414.166 101.848 426.811 96.4342 441.755 96.434L441.755 96.4315Z" fill="white"/>
<path d="M32.1679 325.921L34.5509 339.076L37.4635 326.503L54.1974 264.043H60.0755L76.5977 326.503L79.4573 339.193L81.9991 325.921L95.9265 264.043H102.599L82.8464 348.797H76.5977L59.1223 282.496L57.163 274.113L55.2566 282.496L37.3576 348.797H31.1088L11.4093 264.043H18.0817L32.1679 325.921Z" fill="white"/>
<path d="M174.777 325.048H139.774L131.83 348.797H124.999L154.178 264.043H160.373L189.552 348.797H182.774L174.777 325.048ZM141.786 318.935H172.712L157.249 272.775L141.786 318.935Z" fill="white"/>
<path d="M227.839 342.744H265.914V348.797H221.272V264.043H227.839V342.744Z" fill="white"/>
<path d="M305.366 342.744H343.441V348.797H298.799V264.043H305.366V342.744Z" fill="white"/>
<path d="M418.903 308.167H382.84V342.744H424.304V348.797H376.326V264.043H424.039V270.155H382.84V302.113H418.903V308.167Z" fill="white"/>
<path d="M511.787 270.155H485.362V348.797H478.849V270.155H452.477V264.043H511.787V270.155Z" fill="white"/>
</svg>
