<svg width="65" height="50" viewBox="0 0 65 50" fill="none" xmlns="http://www.w3.org/2000/svg">
<path d="M6.62124 45.6677H2.53441V49.8556H0V39.3425H7.03281V41.2993H2.53441V43.7181H6.62124V45.6677Z" fill="white"/>
<path d="M11.379 49.8556H8.85181V39.3425H11.379V49.8556Z" fill="white"/>
<path d="M22.5125 49.8556H19.9925L16.2667 43.3138V49.8556H13.7323V39.3425H16.2667L19.9853 45.8843V39.3425H22.5125V49.8556Z" fill="white"/>
<path d="M30.8083 47.8916H27.3352L26.7287 49.8556H24.021L27.8768 39.3425H30.2596L34.1442 49.8556H31.4221L30.8083 47.8916ZM27.9418 45.9348H30.2018L29.0682 42.2885L27.9418 45.9348Z" fill="white"/>
<path d="M44.2885 49.8556H41.7685L38.0427 43.3138V49.8556H35.5083V39.3425H38.0427L41.7613 45.8843V39.3425H44.2885V49.8556Z" fill="white"/>
<path d="M54.9888 46.2959C54.9551 47.0276 54.7577 47.675 54.3967 48.2382C54.0357 48.7966 53.5278 49.2298 52.8732 49.5379C52.2233 49.846 51.4796 50 50.642 50C49.2605 50 48.1726 49.5499 47.3783 48.6498C46.5841 47.7496 46.1869 46.4788 46.1869 44.8373V44.3174C46.1869 43.2873 46.365 42.3872 46.7213 41.617C47.0823 40.842 47.5998 40.2451 48.2737 39.8263C48.9476 39.4027 49.7274 39.1909 50.6131 39.1909C51.8888 39.1909 52.9141 39.5278 53.6891 40.2017C54.4641 40.8708 54.9045 41.7951 55.0104 42.9744H52.4832C52.464 42.3342 52.3027 41.8745 51.9995 41.5953C51.6962 41.3161 51.2341 41.1765 50.6131 41.1765C49.9825 41.1765 49.5204 41.4124 49.2268 41.8841C48.9331 42.3559 48.7791 43.1092 48.7647 44.1442V44.8879C48.7647 46.0095 48.9043 46.8109 49.1835 47.2923C49.4675 47.7737 49.9537 48.0144 50.642 48.0144C51.2245 48.0144 51.6697 47.8772 51.9778 47.6028C52.2859 47.3284 52.4496 46.8928 52.4688 46.2959H54.9888Z" fill="white"/>
<path d="M63.299 45.4005H59.3133V47.9061H64.0211V49.8556H56.7789V39.3425H64.0355V41.2993H59.3133V43.516H63.299V45.4005Z" fill="white"/>
<path d="M43.6352 4.47683H33.1207L32.9046 11.32C33.3847 11.1483 33.9128 11.0257 34.489 10.9521C35.0891 10.8785 35.6533 10.8417 36.1814 10.8417C37.4057 10.8417 38.534 11.038 39.5662 11.4304C40.6225 11.7983 41.5227 12.3379 42.2668 13.0492C43.035 13.7605 43.6352 14.6313 44.0673 15.6614C44.4994 16.667 44.7154 17.7953 44.7154 19.0462C44.7154 20.4198 44.4874 21.6584 44.0313 22.7622C43.5752 23.8659 42.951 24.8102 42.1588 25.5951C41.3666 26.3554 40.4304 26.9441 39.3502 27.3611C38.2699 27.8026 37.0936 28.0233 35.8213 28.0233C33.8288 28.0233 32.1484 27.5573 30.7801 26.6252C29.4118 25.6687 28.3795 24.3932 27.6833 22.7989L30.8521 21.5112C31.2602 22.5659 31.8964 23.4121 32.7606 24.0499C33.6488 24.6876 34.669 25.0064 35.8213 25.0064C36.5655 25.0064 37.2617 24.8715 37.9098 24.6017C38.558 24.3319 39.1221 23.9517 39.6022 23.4612C40.0823 22.9706 40.4544 22.382 40.7185 21.6952C41.0065 21.0084 41.1506 20.2481 41.1506 19.4141C41.1506 18.433 40.9825 17.5868 40.6465 16.8755C40.3344 16.1397 39.9023 15.5388 39.3502 15.0728C38.798 14.6067 38.1619 14.2633 37.4417 14.0426C36.7215 13.8218 35.9653 13.7115 35.1732 13.7115C34.2129 13.7115 33.2287 13.8464 32.2204 14.1162C31.2122 14.386 30.312 14.7294 29.5198 15.1463L29.8799 1.31277H43.6352V4.47683Z" fill="white"/>
<path d="M59.7543 13.6379C60.4264 13.8096 61.0506 14.1039 61.6267 14.5209C62.2269 14.9133 62.743 15.3916 63.1751 15.9557C63.6072 16.5199 63.9433 17.1698 64.1833 17.9057C64.4474 18.6415 64.5794 19.4264 64.5794 20.2603C64.5794 21.4867 64.3514 22.5782 63.8953 23.5348C63.4391 24.4913 62.815 25.3007 62.0228 25.963C61.2546 26.6252 60.3544 27.1281 59.3222 27.4714C58.2899 27.8394 57.1977 28.0233 56.0454 28.0233C54.8931 28.0233 53.7888 27.8394 52.7326 27.4714C51.7003 27.1281 50.7881 26.6252 49.9959 25.963C49.2278 25.3007 48.6156 24.4913 48.1595 23.5348C47.7034 22.5782 47.4753 21.4867 47.4753 20.2603C47.4753 19.4019 47.5954 18.6047 47.8354 17.8689C48.0995 17.1331 48.4476 16.4831 48.8797 15.9189C49.3358 15.3548 49.8519 14.8888 50.428 14.5209C51.0282 14.1284 51.6523 13.8341 52.3005 13.6379V13.5643C51.1482 13.1473 50.2 12.436 49.4558 11.4304C48.7356 10.4248 48.3756 9.19838 48.3756 7.75125C48.3756 6.67204 48.5796 5.7032 48.9877 4.84473C49.3958 3.96174 49.9479 3.21365 50.6441 2.60046C51.3403 1.96274 52.1445 1.48445 53.0567 1.16559C53.9929 0.822206 54.9891 0.650513 56.0454 0.650513C57.0776 0.650513 58.0619 0.822206 58.9981 1.16559C59.9343 1.48445 60.7385 1.95047 61.4107 2.56366C62.1068 3.15233 62.659 3.88815 63.0671 4.77115C63.4752 5.62961 63.6792 6.59845 63.6792 7.67767C63.6792 9.10027 63.3071 10.3389 62.5629 11.3936C61.8428 12.4483 60.9065 13.1719 59.7543 13.5643V13.6379ZM51.8684 7.86163C51.8684 8.45029 51.9644 9.00216 52.1565 9.51724C52.3725 10.0323 52.6606 10.4861 53.0207 10.8785C53.4048 11.2464 53.8489 11.5408 54.353 11.7615C54.8811 11.9823 55.4452 12.0926 56.0454 12.0926C56.6215 12.0926 57.1617 11.9823 57.6658 11.7615C58.1699 11.5408 58.614 11.2464 58.9981 10.8785C59.3822 10.4861 59.6823 10.0323 59.8983 9.51724C60.1144 9.00216 60.2224 8.45029 60.2224 7.86163C60.2224 7.24844 60.1024 6.6843 59.8623 6.16922C59.6462 5.62961 59.3462 5.17585 58.9621 4.80794C58.602 4.4155 58.1699 4.12117 57.6658 3.92495C57.1617 3.7042 56.6215 3.59382 56.0454 3.59382C55.4452 3.59382 54.8811 3.7042 54.353 3.92495C53.8489 4.12117 53.4048 4.4155 53.0207 4.80794C52.6606 5.17585 52.3725 5.62961 52.1565 6.16922C51.9644 6.6843 51.8684 7.24844 51.8684 7.86163ZM51.0402 20.0764C51.0402 20.8122 51.1602 21.4867 51.4003 22.0999C51.6403 22.7131 51.9764 23.2404 52.4085 23.6819C52.8646 24.0989 53.3928 24.43 53.9929 24.6753C54.617 24.9206 55.3012 25.0432 56.0454 25.0432C56.7656 25.0432 57.4257 24.9206 58.0259 24.6753C58.65 24.43 59.1781 24.0989 59.6102 23.6819C60.0423 23.2404 60.3784 22.7131 60.6185 22.0999C60.8825 21.4867 61.0146 20.8122 61.0146 20.0764C61.0146 19.3651 60.8825 18.7151 60.6185 18.1264C60.3784 17.5132 60.0423 16.9859 59.6102 16.5444C59.1781 16.1029 58.65 15.7595 58.0259 15.5142C57.4257 15.269 56.7656 15.1463 56.0454 15.1463C55.3252 15.1463 54.6531 15.269 54.0289 15.5142C53.4288 15.7595 52.9006 16.1029 52.4445 16.5444C52.0124 16.9859 51.6643 17.5132 51.4003 18.1264C51.1602 18.7151 51.0402 19.3651 51.0402 20.0764Z" fill="white"/>
<path d="M0 0.65094H12.141C13.4679 0.65094 14.7948 0.80346 16.1216 1.1085C17.4485 1.41354 18.6261 1.92194 19.6545 2.6337C20.716 3.34545 21.5619 4.27752 22.1921 5.42989C22.8556 6.58226 23.1873 8.02272 23.1873 9.75128C23.1873 11.751 22.6234 13.4287 21.4955 14.7844C20.3677 16.1401 18.8749 17.0722 17.0173 17.5806V17.6823C18.1451 17.8179 19.1901 18.1229 20.1521 18.5974C21.1141 19.038 21.9434 19.6312 22.64 20.3768C23.3366 21.1225 23.8673 22.0037 24.2322 23.0205C24.6303 24.0373 24.8293 25.1727 24.8293 26.4267C24.8293 28.1553 24.481 29.6636 23.7844 30.9515C23.0878 32.2394 22.1424 33.3071 20.9482 34.1544C19.754 34.9678 18.3442 35.5949 16.7187 36.0355C15.1265 36.4422 13.4181 36.6456 11.5937 36.6456H0V0.65094ZM4.92606 15.8521H11.3449C12.2737 15.8521 13.1527 15.7504 13.982 15.547C14.8445 15.3098 15.5909 14.9708 16.2212 14.5302C16.8514 14.0557 17.349 13.4795 17.7139 12.8017C18.0788 12.0899 18.2612 11.2426 18.2612 10.2597C18.2612 8.32776 17.5646 6.95508 16.1714 6.14165C14.7782 5.29431 12.904 4.87065 10.5487 4.87065H4.92606V15.8521ZM4.92606 32.375H11.0961C12.1244 32.375 13.1527 32.2903 14.1811 32.1208C15.2426 31.9175 16.188 31.5785 17.0173 31.104C17.8798 30.6295 18.5598 30.0025 19.0574 29.2229C19.5881 28.4095 19.8535 27.3927 19.8535 26.1726C19.8535 24.0373 19.1403 22.4951 17.7139 21.5461C16.2875 20.5971 14.2308 20.1226 11.5439 20.1226H4.92606V32.375Z" fill="white"/>
<path d="M64.286 32.2514H28.0588V37.218H64.286V32.2514Z" fill="white"/>
</svg>
