<svg width="233" height="41" viewBox="0 0 233 41" fill="none" xmlns="http://www.w3.org/2000/svg">
<path d="M16.0027 2.00016C15.9639 1.99985 15.9251 2.00001 15.8862 2.00048C11.1065 2.03986 6.32508 2.00641 1.54469 2.0175C1.5464 3.19389 1.54687 4.37037 1.54697 5.54681C2.30404 6.73048 3.23936 7.83316 5.00055 8.81593C7.08228 9.97756 8.25443 10.4162 11.3839 11.3983C18.4158 13.605 21.7214 19.5661 21.6705 23.8524C21.6238 27.7807 19.9391 30.5246 17.8122 31.9927C18.5994 31.8634 19.3701 31.6433 20.1109 31.2702C23.7616 29.622 26.4729 25.8289 26.3664 21.7578C26.3458 18.2279 24.1815 14.898 21.1297 13.1949C23.6581 10.1524 22.8579 5.01128 19.4295 2.9851C18.4042 2.35579 17.2061 2.00846 16.0027 2.00024V2.00016ZM1.54388 12.2764C1.54093 16.5915 1.53979 20.9064 1.55984 25.2206C1.72368 28.5763 4.43115 31.607 7.77645 32.0665C9.50756 32.2661 11.2727 32.1141 13.0207 32.1617C13.7882 32.1541 14.565 32.1741 15.3394 32.1684C15.67 31.7158 15.9761 31.2151 16.2153 30.6752C17.2754 28.2834 17.2131 25.5903 16.8503 24.0938C16.2915 21.7887 15.0496 19.7458 12.7113 18.5247C9.46452 16.8293 6.87949 16.6956 4.33835 14.9382C3.05676 14.0518 2.17805 13.1876 1.54388 12.2764V12.2764Z" fill="black"/>
<path d="M0.134622 2.56977C0.134622 2.56977 0.36935 5.64715 2.69072 7.80621C3.06243 8.15193 4.17944 9.29224 6.18205 10.1885C8.69503 11.3132 12.0643 12.0456 15.1405 12.6544C21.3336 13.8801 24.0484 18.3953 23.9949 22.676C23.9417 26.9306 19.8557 30.9315 17.5751 32.2907L15.4435 33.5395C15.4435 33.5395 17.7353 31.9019 18.7598 29.4975C19.7783 27.1073 19.7215 24.4179 19.3754 22.9239C18.8424 20.6226 17.7096 18.7175 15.47 17.5014C12.3605 15.8128 6.62239 15.5056 4.18909 13.7541C1.63449 11.9152 0.805423 10.1301 0.478511 8.82583C-0.334417 5.58245 0.134619 2.56976 0.134619 2.56976L0.134622 2.56977Z" fill="black"/>
<path d="M1.5439 12.2764C1.43429 13.0464 1.71571 13.7596 2.10804 14.4102C2.86721 15.6928 4.04557 16.5515 5.34203 17.3125C8.06568 18.7439 11.3289 18.8599 13.9189 20.5812C15.9654 21.9991 16.7078 24.8603 16.9301 27.2506C16.9634 27.6123 16.9635 28.3045 17.0243 27.5518C17.3737 24.6382 16.4546 21.4579 14.1801 19.5115C12.3308 17.9952 9.96457 17.3636 7.75056 16.5792C5.32859 15.7864 3.04584 14.3687 1.5439 12.2764V12.2764Z" fill="black" fill-opacity="0.25"/>
<path d="M59.8814 3.45233C58.2478 3.45233 56.8079 4.03258 55.6555 5.15943C54.5025 6.2868 53.9051 7.70737 53.9051 9.32122C53.9051 10.3901 54.2236 11.4171 54.8389 12.3657C55.2591 13.0135 55.7715 13.5471 56.3574 13.9746C54.7895 14.6259 53.4562 15.6572 52.3888 17.0595C52.3877 17.0607 52.3867 17.0619 52.3856 17.0631C51.1394 18.733 50.5037 20.5967 50.5037 22.6025C50.5037 25.1731 51.4595 27.4374 53.3244 29.3023C53.3252 29.3031 53.326 29.3039 53.3268 29.3047C55.1937 31.1467 57.4813 32.0873 60.096 32.0873C62.7103 32.0873 64.9872 31.1464 66.8305 29.3035C68.6969 27.4615 69.6522 25.1956 69.6522 22.6027C69.6522 20.5473 68.9787 18.6345 67.6616 16.9183L67.6592 16.9172C66.574 15.4778 65.2102 14.4558 63.6063 13.8645C64.1863 13.4275 64.6817 12.9052 65.0692 12.2888C65.6376 11.3844 65.9278 10.3829 65.9278 9.32157C65.9278 7.70552 65.3157 6.28319 64.1384 5.15683C62.9853 4.03081 61.5342 3.45269 59.8799 3.45269L59.8814 3.45233ZM32.2756 3.81022C32.1611 3.81021 32.0506 3.85262 31.9655 3.92926C31.8804 4.0059 31.8267 4.11133 31.8148 4.22523L30.5619 16.1821C30.5551 16.2466 30.562 16.3119 30.5821 16.3736C30.6021 16.4353 30.6349 16.4922 30.6784 16.5404C30.7218 16.5886 30.7749 16.6272 30.8342 16.6536C30.8935 16.68 30.9576 16.6937 31.0225 16.6937H32.2756C32.3505 16.6937 32.4243 16.6755 32.4906 16.6407C32.5569 16.6059 32.6138 16.5556 32.6564 16.494C33.4765 15.3095 34.504 14.384 35.7551 13.7015C35.7572 13.7005 35.7592 13.6994 35.7612 13.6983C37.009 12.995 38.3196 12.6482 39.7221 12.6482C42.1162 12.6482 44.1084 13.4934 45.798 15.2288C45.7988 15.2296 45.7996 15.2304 45.8005 15.2312C47.4899 16.9434 48.316 18.9633 48.316 21.3853C48.316 23.7819 47.491 25.7899 45.8015 27.5027C44.1132 29.1904 42.1188 30.015 39.7223 30.015C37.8382 30.015 36.1487 29.4345 34.5981 28.2487C33.0454 27.0614 32.0132 25.5785 31.4671 23.7581C31.4384 23.6627 31.3797 23.579 31.2998 23.5196C31.2198 23.4601 31.1228 23.4281 31.0232 23.4281H29.9136C29.8436 23.4281 29.7745 23.444 29.7115 23.4745C29.6485 23.5051 29.5933 23.5495 29.5499 23.6044C29.5066 23.6593 29.4762 23.7234 29.4612 23.7917C29.4461 23.8601 29.4467 23.931 29.463 23.999C30.0115 26.293 31.2754 28.2109 33.2109 29.6998C33.2117 29.7007 33.2125 29.7015 33.2134 29.7023C35.17 31.1883 37.3577 31.9446 39.7225 31.9446C42.6459 31.9446 45.1846 30.9096 47.2435 28.8755C47.2435 28.8754 47.2435 28.8754 47.2435 28.8753C49.3257 26.818 50.3883 24.2892 50.3883 21.386C50.3883 18.4613 49.3397 15.9216 47.2812 13.8631C45.2229 11.781 42.6704 10.7203 39.7223 10.7203C38.2058 10.7203 36.7546 11.0201 35.3844 11.618C34.4624 12.0203 33.6558 12.5562 32.9516 13.2L33.7315 5.77583H46.9537C47.0766 5.77581 47.1944 5.72699 47.2813 5.64012C47.3681 5.55325 47.4169 5.43543 47.417 5.31258V4.27446C47.417 4.15157 47.3682 4.03371 47.2813 3.9468C47.1945 3.85988 47.0766 3.81104 46.9537 3.81101L32.2756 3.81022ZM59.8814 5.38121C60.9604 5.38121 61.8591 5.76092 62.6683 6.57017C62.6697 6.57159 62.6712 6.57301 62.6726 6.57441C63.4803 7.36032 63.8569 8.23247 63.8569 9.28528C63.8569 10.337 63.4793 11.2237 62.6704 12.0338C61.8626 12.8187 60.9623 13.1894 59.8812 13.1894C58.8275 13.1894 57.9393 12.8207 57.131 12.0363C56.346 11.2277 55.9771 10.3394 55.9771 9.28528C55.9771 8.22932 56.3453 7.35483 57.1301 6.56998C57.9409 5.75925 58.8283 5.38101 59.8812 5.38101L59.8814 5.38121ZM60.0962 15.1184C62.1559 15.1185 63.8751 15.8449 65.3505 17.343C66.8271 18.8423 67.5443 20.5769 67.5443 22.6384C67.5443 24.6997 66.827 26.434 65.3507 27.9332C65.3507 27.9333 65.3507 27.9335 65.3507 27.9335C63.8764 29.4066 62.1565 30.1223 60.0962 30.1223C58.0359 30.1223 56.3023 29.4058 54.8036 27.9309C53.3279 26.4314 52.6122 24.7093 52.6122 22.6741C52.6122 20.6143 53.3394 18.8811 54.8393 17.3813C54.8401 17.3806 54.8409 17.3799 54.8417 17.3792C56.3429 15.8553 58.0632 15.1188 60.0961 15.1188L60.0962 15.1184Z" fill="black"/>
<path d="M88.375 23.8594L89.0781 27.3906L89.9375 24.0156L94.875 7.25H96.6094L101.484 24.0156L102.328 27.4219L103.078 23.8594L107.188 7.25H109.156L103.328 30H101.484L96.3281 12.2031L95.75 9.95312L95.1875 12.2031L89.9062 30H88.0625L82.25 7.25H84.2188L88.375 23.8594ZM130.453 23.625H120.125L117.781 30H115.766L124.375 7.25H126.203L134.812 30H132.812L130.453 23.625ZM120.719 21.9844H129.844L125.281 9.59375L120.719 21.9844ZM146.109 28.375H157.344V30H144.172V7.25H146.109V28.375ZM168.984 28.375H180.219V30H167.047V7.25H168.984V28.375ZM202.484 19.0938H191.844V28.375H204.078V30H189.922V7.25H204V8.89062H191.844V17.4688H202.484V19.0938ZM229.891 8.89062H222.094V30H220.172V8.89062H212.391V7.25H229.891V8.89062Z" fill="black"/>
</svg>
