<svg viewBox="0 0 120 34" fill="none" xmlns="http://www.w3.org/2000/svg">
<path d="M30.4076 19.4948C28.6181 21.3265 26.2755 22.4885 23.7587 22.7928C23.7862 20.3042 23.0951 17.8624 21.7717 15.772C22.4412 15.8729 23.1245 15.8144 23.7682 15.6011C24.412 15.3878 24.9987 15.0256 25.4825 14.5426C27.2319 12.7978 27.2081 9.88524 25.4788 8.12034L22.4113 4.98958L27.2979 0L30.4057 3.17234C33.7196 6.55449 34.5469 11.5132 32.8872 15.6832C32.3192 17.1104 31.4759 18.4066 30.4076 19.4948Z" fill="currentColor"/>
<path d="M11.3067 29.0104L6.42009 34L3.31223 30.8277C-0.00166106 27.4455 -0.828989 22.4868 0.830703 18.3168C1.59291 16.4087 2.84122 14.7433 4.44628 13.4932C6.05134 12.2431 7.95473 11.4538 9.95924 11.2072C9.93176 13.6958 10.6229 16.1376 11.9463 18.228C11.2768 18.1271 10.5934 18.1856 9.94971 18.3989C9.30599 18.6122 8.71929 18.9744 8.23545 19.4574C6.48602 21.2022 6.50983 24.1148 8.23911 25.8797L11.3067 29.0104Z" fill="currentColor"/>
<path d="M19.3034 30.8277L16.1951 34L11.3067 29.0104L14.4145 25.8385C15.2388 24.9973 15.7018 23.8563 15.7018 22.6667C15.7018 21.477 15.2388 20.336 14.4145 19.4948C12.2937 17.3303 11.1023 14.3946 11.1023 11.3336C11.1023 8.27252 12.2937 5.33684 14.4145 3.17234L17.5229 0L22.4113 4.98958L19.3034 8.16146C18.4792 9.00271 18.0162 10.1437 18.0162 11.3333C18.0162 12.523 18.4792 13.664 19.3034 14.5052C21.4242 16.6697 22.6157 19.6054 22.6157 22.6664C22.6157 25.7275 21.4242 28.6632 19.3034 30.8277Z" fill="currentColor"/>
<path d="M46.7755 27.4929V6.51581H54.9108C57.425 6.51581 59.2389 7.084 60.3523 8.22037C61.1964 9.08181 61.6184 10.264 61.6184 11.767C61.6184 12.9766 61.349 14.003 60.8102 14.8462C60.2894 15.6709 59.5442 16.2116 58.5744 16.4682C59.8854 16.6882 60.8911 17.2289 61.5914 18.0903C62.3098 18.9334 62.669 20.0331 62.669 21.3895C62.669 22.3426 62.4984 23.204 62.1571 23.9738C61.8339 24.7436 61.3939 25.3668 60.8372 25.8433C60.047 26.4848 59.1401 26.9247 58.1164 27.163C57.1108 27.3829 56.1589 27.4929 55.261 27.4929H46.7755ZM54.6684 15.2311C55.6561 15.2311 56.4104 15.0111 56.9312 14.5712C57.452 14.113 57.7124 13.4623 57.7124 12.6192C57.7124 11.7944 57.4699 11.1896 56.985 10.8047C56.6977 10.5481 56.3116 10.3648 55.8267 10.2548C55.3598 10.1265 54.7672 10.0624 54.0488 10.0624H50.6546V15.2311H54.6684ZM54.7761 23.9463C55.4586 23.9463 56.0692 23.8913 56.6079 23.7813C57.1646 23.6714 57.6316 23.4514 58.0087 23.1215C58.5115 22.7 58.763 22.0218 58.763 21.087C58.763 20.0057 58.4397 19.3 57.7932 18.9701C57.1467 18.6218 56.2847 18.4477 55.2071 18.4477H50.6546V23.9463H54.7761Z" fill="currentColor"/>
<path d="M72.4809 27.7953C70.9544 27.7953 69.6075 27.4562 68.4402 26.7781C67.2729 26.0999 66.366 25.1652 65.7195 23.9738C65.0909 22.7641 64.7767 21.3986 64.7767 19.8774C64.7767 18.4661 65.055 17.1464 65.6117 15.9184C66.1864 14.672 67.0394 13.664 68.1708 12.8942C69.3202 12.1244 70.721 11.7395 72.3732 11.7395C73.738 11.7395 74.9951 12.0327 76.1445 12.6192C77.2938 13.1874 78.2187 14.0764 78.9191 15.286C79.6195 16.4774 79.9697 17.962 79.9697 19.7399V20.5372H68.548C68.6018 21.1787 68.7904 21.7835 69.1137 22.3517C69.4728 23.0665 69.9488 23.6256 70.5414 24.0288C71.152 24.4137 71.8434 24.6061 72.6156 24.6061C73.4417 24.6061 74.1511 24.3954 74.7437 23.9738C75.3364 23.5339 75.7584 22.9749 76.0098 22.2967H79.7272C79.2424 23.928 78.3893 25.2568 77.1681 26.2832C75.9469 27.2913 74.3845 27.7953 72.4809 27.7953ZM76.2523 17.7604C76.1804 17.1739 75.9919 16.6973 75.6866 16.3308C75.3453 15.7992 74.8964 15.396 74.3396 15.1211C73.7829 14.8278 73.1634 14.6812 72.4809 14.6812C71.7985 14.6812 71.1789 14.8187 70.6222 15.0936C70.0834 15.3685 69.6435 15.7809 69.3022 16.3308C68.979 16.734 68.7814 17.2105 68.7096 17.7604H76.2523Z" fill="currentColor"/>
<path d="M89.5771 33.3489C87.7812 33.3489 86.2368 32.964 84.9438 32.1942C83.6687 31.4427 82.8785 30.1505 82.5732 28.3177H86.2368C86.4702 29.0691 86.8564 29.6098 87.3951 29.9398C87.9339 30.288 88.6522 30.4621 89.5502 30.4621C90.7354 30.4621 91.6154 30.1872 92.1901 29.6373C92.7647 29.0875 93.0521 28.336 93.0521 27.3829V25.211C92.4595 26.0541 91.8219 26.6406 91.1395 26.9705C90.475 27.3004 89.6759 27.4654 88.742 27.4654C87.449 27.4654 86.2996 27.1355 85.2939 26.4756C84.2883 25.7975 83.5071 24.8627 82.9503 23.6714C82.3936 22.48 82.1153 21.142 82.1153 19.6574C82.1153 18.1361 82.3936 16.7798 82.9503 15.5885C83.5071 14.3788 84.2883 13.4349 85.2939 12.7567C86.2996 12.0785 87.449 11.7395 88.742 11.7395C89.6759 11.7395 90.475 11.9136 91.1395 12.2618C91.8219 12.5917 92.4595 13.1783 93.0521 14.0214V12.0694H96.6887V26.5031C96.6887 28.9775 96.0512 30.737 94.7761 31.7818C93.519 32.8265 91.786 33.3489 89.5771 33.3489ZM89.604 24.2762C90.3583 24.2762 91.0317 24.0746 91.6244 23.6714C92.217 23.2681 92.675 22.7091 92.9982 21.9943C93.3394 21.2795 93.51 20.4822 93.51 19.6024C93.51 18.7227 93.3394 17.9254 92.9982 17.2105C92.675 16.4957 92.217 15.9367 91.6244 15.5335C91.0317 15.1302 90.3583 14.9286 89.604 14.9286C88.4547 14.9286 87.5298 15.3777 86.8294 16.2758C86.129 17.1556 85.7788 18.2644 85.7788 19.6024C85.7788 20.9404 86.129 22.0585 86.8294 22.9566C87.5298 23.8363 88.4547 24.2762 89.604 24.2762Z" fill="currentColor"/>
<path d="M103.6 27.4929H99.9632V12.0694H103.6V27.4929ZM101.795 10.3648C101.166 10.3648 100.637 10.1724 100.206 9.78747C99.7746 9.40257 99.5591 8.88936 99.5591 8.24786C99.5591 7.64302 99.7746 7.13898 100.206 6.73575C100.637 6.33253 101.166 6.13091 101.795 6.13091C102.406 6.13091 102.926 6.33253 103.357 6.73575C103.806 7.13898 104.031 7.64302 104.031 8.24786C104.031 8.87104 103.815 9.38424 103.384 9.78747C102.953 10.1724 102.424 10.3648 101.795 10.3648Z" fill="currentColor"/>
<path d="M106.908 27.4929V12.0694H110.545V14.0214C111.119 13.1966 111.739 12.6101 112.403 12.2618C113.068 11.9136 113.822 11.7395 114.666 11.7395C117.001 11.7395 118.572 12.6009 119.38 14.3238C119.65 14.9286 119.82 15.5426 119.892 16.1658C119.964 16.789 120 17.6046 120 18.6127V27.4929H116.39V18.5577C116.39 17.0731 116.139 16.0467 115.636 15.4785C115.205 15.0203 114.568 14.7912 113.723 14.7912C112.7 14.7912 111.937 15.1028 111.434 15.7259C111.128 16.0925 110.904 16.5874 110.76 17.2105C110.617 17.8154 110.545 18.6218 110.545 19.6299V27.4929H106.908Z" fill="currentColor"/>
</svg>
