<svg width="151" height="42" viewBox="0 0 151 42" fill="none" xmlns="http://www.w3.org/2000/svg">
<g clip-path="url(#clip0_6589_1917)">
<path d="M147.798 18.4646C146.068 20.1995 143.804 21.3001 141.371 21.5883C141.398 19.2312 140.73 16.9184 139.45 14.9385C140.097 15.034 140.758 14.9786 141.38 14.7766C142.002 14.5746 142.57 14.2315 143.037 13.7741C144.728 12.1215 144.705 9.36284 143.034 7.6912L140.068 4.7259L144.792 0L147.796 3.00469C151 6.20811 151.8 10.9048 150.195 14.8544C149.646 16.2062 148.831 17.4339 147.798 18.4646Z" fill="white"/>
<path d="M129.334 27.4773L124.61 32.2032L121.606 29.1985C118.403 25.9951 117.603 21.2984 119.207 17.3488C119.944 15.5415 121.151 13.9641 122.702 12.7801C124.254 11.5961 126.094 10.8485 128.032 10.6149C128.005 12.972 128.673 15.2848 129.952 17.2647C129.305 17.1692 128.645 17.2246 128.022 17.4266C127.4 17.6286 126.833 17.9717 126.365 18.4291C124.674 20.0817 124.697 22.8404 126.369 24.512L129.334 27.4773Z" fill="white"/>
<path d="M137.064 29.1985L134.06 32.2032L129.334 27.4773L132.339 24.4731C133.135 23.6763 133.583 22.5956 133.583 21.4688C133.583 20.342 133.135 19.2613 132.339 18.4645C130.288 16.4144 129.137 13.6339 129.137 10.7346C129.137 7.83534 130.288 5.0548 132.339 3.00469L135.343 0L140.069 4.7259L137.064 7.73015C136.268 8.52694 135.82 9.6076 135.82 10.7344C135.82 11.8612 136.268 12.9419 137.064 13.7386C139.115 15.7888 140.266 18.5693 140.266 21.4686C140.266 24.3679 139.115 27.1484 137.064 29.1985Z" fill="white"/>
</g>
<path d="M12.0918 32.7224C10.666 32.7224 9.44583 32.4756 8.43133 31.9821C7.41683 31.4886 6.45716 30.6111 5.55234 29.3499V32.27H0V0.889H5.55234V12.1171C6.42975 10.8558 7.3757 9.97838 8.3902 9.48484C9.43212 8.96388 10.666 8.7034 12.0918 8.7034C14.0933 8.7034 15.8619 9.21065 17.3973 10.2252C18.9328 11.2397 20.1255 12.6654 20.9755 14.5025C21.8255 16.3122 22.2505 18.3823 22.2505 20.7129C22.2505 23.0435 21.8255 25.1274 20.9755 26.9644C20.1255 28.7741 18.9328 30.1862 17.3973 31.2007C15.8619 32.2152 14.0933 32.7224 12.0918 32.7224ZM10.8168 27.9515C12.5716 27.9515 13.9837 27.2797 15.053 25.9362C16.1223 24.5653 16.657 22.8242 16.657 20.7129C16.657 18.6016 16.1223 16.8742 15.053 15.5307C13.9837 14.1598 12.5716 13.4743 10.8168 13.4743C9.06197 13.4743 7.62247 14.1461 6.49829 15.4896C5.40154 16.8331 4.85316 18.5742 4.85316 20.7129C4.85316 22.8516 5.40154 24.5927 6.49829 25.9362C7.62247 27.2797 9.06197 27.9515 10.8168 27.9515Z" fill="white"/>
<path d="M36.993 32.7224C34.6624 32.7224 32.6059 32.2152 30.8237 31.2007C29.0415 30.1862 27.6568 28.7878 26.6697 27.0056C25.7101 25.1959 25.2302 23.1532 25.2302 20.8774C25.2302 18.7662 25.6552 16.792 26.5052 14.9549C27.3826 13.0904 28.685 11.5824 30.4124 10.4308C32.1672 9.2792 34.3059 8.7034 36.8285 8.7034C38.9123 8.7034 40.8316 9.14211 42.5864 10.0195C44.3413 10.8695 45.7533 12.1993 46.8227 14.009C47.892 15.7912 48.4267 18.0121 48.4267 20.6718V21.8645H30.9882C31.0705 22.8242 31.3584 23.729 31.8519 24.579C32.4003 25.6483 33.1269 26.4846 34.0317 27.0878C34.964 27.6636 36.0196 27.9515 37.1986 27.9515C38.4599 27.9515 39.5429 27.6362 40.4478 27.0056C41.3526 26.3475 41.9969 25.5112 42.3808 24.4967H48.0565C47.3162 26.937 46.0138 28.9249 44.1493 30.4603C42.2848 31.9684 39.8994 32.7224 36.993 32.7224ZM42.751 17.7105C42.6413 16.8331 42.3534 16.1202 41.8873 15.5719C41.3663 14.7767 40.6808 14.1735 39.8308 13.7622C38.9809 13.3235 38.0349 13.1041 36.993 13.1041C35.9511 13.1041 35.0051 13.3098 34.1551 13.7211C33.3325 14.1324 32.6608 14.7493 32.1398 15.5719C31.6463 16.1751 31.3447 16.888 31.235 17.7105H42.751Z" fill="white"/>
<path d="M62.8842 41.0304C60.1423 41.0304 57.7842 40.4546 55.8101 39.303C53.8633 38.1788 52.6569 36.2457 52.1908 33.5038H57.7842C58.1407 34.628 58.7302 35.4369 59.5528 35.9304C60.3753 36.4514 61.4721 36.7119 62.843 36.7119C64.6527 36.7119 65.9962 36.3006 66.8736 35.478C67.751 34.6554 68.1897 33.5313 68.1897 32.1055V28.8563C67.2849 30.1176 66.3115 30.995 65.2696 31.4886C64.2551 31.9821 63.035 32.2289 61.6092 32.2289C59.635 32.2289 57.8802 31.7353 56.3447 30.7482C54.8093 29.7337 53.6166 28.3354 52.7666 26.5531C51.9166 24.7709 51.4916 22.7693 51.4916 20.5484C51.4916 18.2726 51.9166 16.2436 52.7666 14.4614C53.6166 12.6517 54.8093 11.2397 56.3447 10.2252C57.8802 9.21065 59.635 8.7034 61.6092 8.7034C63.035 8.7034 64.2551 8.96388 65.2696 9.48484C66.3115 9.97838 67.2849 10.8558 68.1897 12.1171V9.19694H73.7421V30.7894C73.7421 34.4909 72.7687 37.1231 70.8219 38.686C68.9026 40.2489 66.2567 41.0304 62.8842 41.0304ZM62.9253 27.458C64.0769 27.458 65.1051 27.1564 66.0099 26.5531C66.9147 25.9499 67.6139 25.1136 68.1075 24.0443C68.6284 22.975 68.8889 21.7822 68.8889 20.4661C68.8889 19.15 68.6284 17.9573 68.1075 16.888C67.6139 15.8186 66.9147 14.9823 66.0099 14.3791C65.1051 13.7759 64.0769 13.4743 62.9253 13.4743C61.1705 13.4743 59.7584 14.1461 58.6891 15.4896C57.6197 16.8057 57.085 18.4646 57.085 20.4661C57.085 22.4677 57.6197 24.1403 58.6891 25.4838C59.7584 26.7999 61.1705 27.458 62.9253 27.458Z" fill="white"/>
<path d="M84.0828 32.27H78.5305V9.19694H84.0828V32.27ZM81.3272 6.64698C80.3676 6.64698 79.5587 6.35908 78.9007 5.78328C78.2426 5.20748 77.9136 4.43975 77.9136 3.48009C77.9136 2.57526 78.2426 1.82124 78.9007 1.21803C79.5587 0.61481 80.3676 0.313202 81.3272 0.313202C82.2595 0.313202 83.0546 0.61481 83.7127 1.21803C84.3982 1.82124 84.7409 2.57526 84.7409 3.48009C84.7409 4.41233 84.4119 5.18007 83.7538 5.78328C83.0958 6.35908 82.2869 6.64698 81.3272 6.64698Z" fill="white"/>
<path d="M88.923 32.27V9.19694H94.4754V12.1171C95.3528 10.8832 96.2987 10.0058 97.3132 9.48484C98.3277 8.96388 99.4793 8.7034 100.768 8.7034C104.332 8.7034 106.732 9.99209 107.965 12.5695C108.377 13.4743 108.637 14.3928 108.747 15.3251C108.857 16.2573 108.911 17.4775 108.911 18.9855V32.27H103.4V18.9033C103.4 16.6823 103.016 15.1469 102.249 14.2969C101.591 13.6114 100.617 13.2687 99.3285 13.2687C97.7656 13.2687 96.6003 13.7348 95.8326 14.667C95.3665 15.2154 95.0237 15.9557 94.8044 16.888C94.585 17.7928 94.4754 18.9992 94.4754 20.5073V32.27H88.923Z" fill="white"/>
<defs>
<clipPath id="clip0_6589_1917">
<rect width="32.5975" height="32.2028" fill="white" transform="translate(118.402)"/>
</clipPath>
</defs>
</svg>
