<svg width="41" height="46" viewBox="0 0 41 46" fill="none" xmlns="http://www.w3.org/2000/svg">
<path d="M20.4999 23.1804C26.3487 23.1804 31.0901 18.439 31.0901 12.5902C31.0901 6.74139 26.3487 2 20.4999 2C14.6511 2 9.90967 6.74139 9.90967 12.5902C9.90967 18.439 14.6511 23.1804 20.4999 23.1804Z" stroke="white" stroke-width="3"/>
<path d="M31.0901 27.4165H31.8356C33.3841 27.4169 34.8791 27.9828 36.0398 29.0077C37.2004 30.0327 37.9469 31.4462 38.1389 32.9827L38.9671 39.5995C39.0415 40.1955 38.9884 40.8006 38.8112 41.3746C38.6339 41.9486 38.3366 42.4783 37.939 42.9286C37.5414 43.3789 37.0526 43.7395 36.505 43.9864C35.9573 44.2333 35.3635 44.3609 34.7628 44.3608H6.237C5.63629 44.3609 5.04241 44.2333 4.4948 43.9864C3.94718 43.7395 3.45835 43.3789 3.06074 42.9286C2.66313 42.4783 2.36583 41.9486 2.18859 41.3746C2.01135 40.8006 1.9582 40.1955 2.03269 39.5995L2.85873 32.9827C3.05083 31.4455 3.7979 30.0314 4.95947 29.0063C6.12103 27.9813 7.61707 27.4159 9.16625 27.4165H9.90968" stroke="white" stroke-width="3" stroke-linecap="round" stroke-linejoin="round"/>
</svg>
